<svg width="1920" height="466" viewBox="0 0 1920 466" fill="none" xmlns="http://www.w3.org/2000/svg">
<g clip-path="url(#clip0_820_594)">
<rect width="1920" height="466" fill="white"/>
<g clip-path="url(#clip1_820_594)">
<path d="M352.812 695.311C380.196 581.848 430.656 449.066 530.204 420.28C689.927 374.095 840.206 634.907 999.311 592.081C1130.09 556.882 1076.12 297.815 1196.29 253.395C1345.21 198.347 1523.19 537.523 1675.3 489.466C1840.85 437.168 1798.67 -17.9346 1923.37 -38.2217C2027.53 -55.1706 2114.47 253 2243.32 238.478C2365.57 224.7 2389.69 -64.2325 2517 -74.1841C2576.99 -78.869 2631.69 -19.3995 2670.7 36.443" stroke="#58BDF6" stroke-width="0.558645" stroke-miterlimit="10"/>
<path d="M361.364 715.19C376.832 666.617 398.097 614.004 425.309 565.489C457.869 507.759 494.21 457.075 550.512 439.959C706.957 392.403 855.373 646.842 1012.51 606.471C1140.94 573.046 1090.79 323.119 1209.43 280.713C1356.16 228.082 1531.12 555.998 1681.89 509.841C1770.23 482.801 1801.03 353.317 1827.6 231.161C1853.24 113.231 1874.58 1.10391 1933.84 -10.7176C1962.83 -16.4985 1990.51 3.31842 2018.69 34.8841C2089.84 114.141 2160.76 269.693 2253.04 259.29C2372.93 245.779 2397.98 -37.5141 2523.19 -52.064C2581.52 -58.845 2634.89 -2.01055 2673 50.2141" stroke="#58BDF6" stroke-width="0.575405" stroke-miterlimit="10"/>
<path d="M369.917 735.07C388.334 689.802 413.41 640.426 443.28 591.636C479.01 533.278 512.238 478.272 570.823 459.645C724.03 410.939 870.667 659.266 1025.7 620.862C1151.88 589.606 1105.46 348.424 1222.57 308.031C1367.1 257.817 1539.09 574.565 1688.5 530.212C1780.31 502.961 1811.64 376.673 1838.59 258.055C1865.04 141.65 1886.58 30.5377 1944.31 16.793C1972.65 10.0466 1999.67 28.2602 2027.9 58.4085C2099.05 134.408 2170.39 290.525 2262.78 280.113C2380.31 266.869 2406.11 -10.73 2529.39 -29.9384C2586 -38.7601 2638.12 15.3889 2675.31 63.9967" stroke="#58BDF6" stroke-width="0.592164" stroke-miterlimit="10"/>
<path d="M378.464 754.949C399.824 712.991 428.782 666.885 461.249 617.786C500.226 558.839 530.249 499.49 591.126 479.335C741.135 429.661 885.877 671.443 1038.89 635.262C1162.77 605.967 1120.13 373.744 1235.7 335.358C1378.04 287.568 1547.08 593.223 1695.09 550.592C1790.39 523.147 1822.27 400.036 1849.57 284.959C1876.84 170.06 1898.57 59.9689 1954.78 44.3187C1982.48 36.6064 2008.88 53.1845 2037.11 81.9479C2108.38 154.591 2180 311.367 2272.5 300.946C2387.67 287.963 2414.08 16.1445 2535.58 -7.80275C2590.43 -18.6114 2641.33 32.7929 2677.61 77.7832" stroke="#58BDF6" stroke-width="0.61451" stroke-miterlimit="10"/>
<path d="M387.016 774.827C411.325 736.174 444.165 693.339 479.224 643.93C521.459 584.399 548.268 520.731 611.441 499.013C758.286 448.536 901.098 683.603 1052.08 649.645C1173.65 622.307 1134.88 399.293 1248.84 362.669C1389.09 317.601 1555.11 611.946 1701.69 570.961C1800.49 543.337 1832.95 423.384 1860.57 311.852C1888.2 200.32 1910.59 89.3765 1965.26 71.8272C1992.32 63.1369 2018.11 78.0856 2046.32 105.471C2117.72 174.755 2189.63 332.198 2282.23 321.762C2395.05 309.046 2421.89 43.0885 2541.78 14.3162C2594.83 1.58572 2644.55 50.1858 2679.92 91.5587" stroke="#58BDF6" stroke-width="0.631269" stroke-miterlimit="10"/>
<path d="M395.569 794.712C422.827 759.363 459.562 719.809 497.2 670.08C542.7 609.964 566.279 541.995 631.751 518.703C775.464 467.573 916.302 695.77 1065.28 664.046C1184.54 638.652 1149.56 424.668 1261.99 389.997C1400.06 347.418 1563.16 630.752 1708.29 591.342C1810.6 563.561 1843.65 446.748 1871.56 338.757C1900.48 226.846 1922.61 118.779 1975.72 99.3482C2002.16 89.6743 2027.32 103.005 2055.53 129.006C2127.07 194.937 2199.25 353.04 2291.95 342.59C2402.42 330.141 2429.54 70.1582 2547.97 36.4472C2599.18 21.8709 2647.76 67.5855 2682.21 105.341" stroke="#58BDF6" stroke-width="0.648028" stroke-miterlimit="10"/>
<path d="M404.116 814.592C434.317 782.554 474.956 746.274 515.169 696.226C563.938 635.53 584.285 563.283 652.06 538.388C792.678 486.729 931.499 707.922 1078.47 678.436C1195.41 654.977 1164.24 450.027 1275.13 417.314C1411.03 377.224 1571.25 649.612 1714.9 611.717C1820.73 583.8 1854.4 470.103 1882.56 365.65C1912.34 255.214 1934.64 148.158 1986.21 126.857C2012.02 116.193 2036.56 127.906 2064.76 152.528C2136.44 215.106 2208.89 373.871 2301.69 363.412C2409.8 351.229 2437.08 97.3504 2554.19 58.5714C2603.52 42.2306 2650.99 84.9836 2684.53 119.122" stroke="#58BDF6" stroke-width="0.664788" stroke-miterlimit="10"/>
<path d="M412.668 834.471C445.818 805.738 490.357 772.738 533.144 722.371C585.189 661.101 602.299 584.592 672.369 558.068C809.925 506.001 946.684 720.063 1091.67 692.826C1206.27 671.297 1178.93 475.386 1288.27 444.631C1421.98 407.024 1579.34 668.532 1721.5 632.087C1830.86 604.051 1865.17 493.454 1893.55 392.545C1924.19 283.571 1946.67 177.515 1996.67 154.367C2021.86 142.708 2045.78 152.814 2073.96 176.047C2145.8 235.276 2218.5 394.698 2311.4 384.224C2417.16 372.303 2444.48 124.677 2560.37 80.6864C2607.82 62.6781 2654.19 102.367 2686.83 132.888" stroke="#58BDF6" stroke-width="0.687134" stroke-miterlimit="10"/>
<path d="M421.22 854.35C457.318 828.922 505.769 799.206 551.119 748.516C606.446 686.67 620.315 605.928 692.684 577.751C827.208 525.375 961.873 732.191 1104.86 707.215C1217.13 687.605 1193.6 500.745 1301.41 471.948C1432.94 436.819 1587.45 687.5 1728.1 652.456C1841 624.327 1875.98 516.803 1904.54 419.437C1936.07 311.919 1958.71 206.853 2007.15 181.876C2031.71 169.21 2055.02 177.719 2083.18 199.57C2155.19 255.442 2228.13 415.528 2321.14 405.04C2424.54 393.385 2451.81 152.167 2566.57 102.805C2612.12 83.214 2657.42 119.759 2689.13 146.663" stroke="#58BDF6" stroke-width="0.703893" stroke-miterlimit="10"/>
<path d="M429.768 874.231C468.809 852.108 521.177 825.682 569.09 774.663C627.704 712.247 638.329 627.294 712.989 597.438C844.506 544.846 977.041 744.318 1118.05 721.612C1227.98 703.91 1208.27 526.106 1314.55 499.272C1443.89 466.622 1595.58 706.526 1734.7 672.839C1851.14 644.64 1886.83 540.172 1915.53 446.344C1947.97 340.268 1970.75 236.183 2017.62 209.399C2041.56 195.714 2064.25 202.633 2092.39 223.106C2164.59 275.627 2237.75 436.372 2330.86 425.876C2431.91 414.488 2459.06 179.844 2572.77 124.943C2616.41 103.871 2660.63 137.166 2691.43 160.452" stroke="#58BDF6" stroke-width="0.720652" stroke-miterlimit="10"/>
<path d="M438.32 894.115C480.311 875.302 536.59 852.161 587.065 800.812C648.972 737.831 656.355 648.685 733.303 617.121C861.844 564.4 992.207 756.432 1131.25 736.005C1238.84 720.201 1222.95 551.459 1327.69 526.594C1454.84 496.411 1603.72 725.592 1741.31 693.213C1861.31 664.97 1897.73 563.529 1926.53 473.237C1959.9 368.59 1982.79 265.482 2028.09 236.907C2051.42 222.198 2073.5 227.538 2101.61 246.629C2173.99 295.792 2247.37 457.202 2340.59 446.691C2439.29 435.565 2466.28 207.69 2578.97 147.061C2620.71 124.603 2663.85 154.559 2693.74 174.227" stroke="#58BDF6" stroke-width="0.737412" stroke-miterlimit="10"/>
<path d="M446.867 913.994C491.806 898.486 552.003 878.64 605.029 826.958C670.23 763.412 674.378 670.105 753.601 636.807C879.188 584.022 1007.35 768.531 1144.44 750.395C1249.67 736.473 1237.61 576.807 1340.82 553.911C1465.78 526.196 1611.87 744.698 1747.89 713.583C1871.46 685.324 1908.66 586.891 1937.51 500.131C1971.83 396.906 1994.8 294.76 2038.55 264.417C2061.26 248.673 2082.73 252.438 2110.81 270.152C2183.4 315.957 2256.98 478.034 2350.3 467.509C2446.64 456.649 2473.48 235.729 2585.15 169.182C2625.01 145.425 2667.05 171.947 2696.03 187.999" stroke="#58BDF6" stroke-width="0.754171" stroke-miterlimit="10"/>
<path d="M455.419 933.874C503.301 921.671 567.422 905.12 623.003 853.104C691.499 788.998 692.425 691.552 773.916 656.492C896.577 603.719 1022.51 780.619 1157.63 764.791C1260.51 752.739 1252.28 602.157 1353.97 581.234C1476.73 555.982 1620.03 763.848 1754.5 733.964C1881.64 705.711 1919.64 610.271 1948.5 527.036C1983.8 425.231 2006.84 324.028 2049.03 291.944C2071.11 275.154 2092 277.354 2120.03 293.693C2192.84 336.132 2266.62 498.882 2360.04 488.342C2454.03 477.75 2480.73 263.983 2591.36 191.318C2629.36 166.356 2670.28 189.352 2698.34 201.792" stroke="#58BDF6" stroke-width="0.776517" stroke-miterlimit="10"/>
<path d="M463.971 953.753C514.803 944.86 582.847 931.605 640.979 879.248C712.774 814.589 710.482 713.031 794.225 676.171C913.982 623.465 1038.28 797.868 1170.83 779.175C1270.86 765.07 1266.94 627.489 1367.11 608.545C1487.67 585.75 1628.2 783.02 1761.1 754.329C1891.82 726.108 1930.66 633.635 1959.49 553.924C1995.81 453.524 2018.85 353.262 2059.5 319.447C2080.96 301.601 2101.26 302.241 2129.24 317.211C2202.29 356.277 2276.24 519.708 2369.76 509.16C2461.39 498.828 2488.04 292.416 2597.55 213.438C2633.73 187.346 2673.49 206.745 2700.64 215.562" stroke="#58BDF6" stroke-width="0.793276" stroke-miterlimit="10"/>
<path d="M472.518 973.633C526.298 968.045 598.266 958.095 658.948 905.4C734.049 840.185 728.547 734.549 814.535 695.861C931.41 643.282 1053.36 810.158 1184.02 793.576C1281.73 781.177 1281.6 652.833 1380.25 635.874C1498.61 615.53 1636.38 802.241 1767.71 774.71C1902.01 746.555 1941.74 657.029 1970.49 580.823C2007.85 481.826 2030.86 382.491 2069.98 346.962C2090.8 328.054 2110.52 327.139 2138.46 340.734C2211.75 376.415 2285.87 540.533 2379.5 529.976C2468.77 519.911 2495.45 321.043 2603.75 235.557C2638.15 208.406 2676.71 224.134 2702.95 229.339" stroke="#58BDF6" stroke-width="0.810036" stroke-miterlimit="10"/>
<path d="M481.07 993.518C537.794 991.234 613.691 984.585 676.924 931.55C755.325 865.787 746.631 756.098 834.845 715.551C948.863 663.141 1068.42 822.394 1197.22 807.971C1292.61 797.287 1296.27 678.165 1393.39 663.196C1509.55 645.293 1644.56 821.484 1774.3 795.09C1912.2 767.035 1952.85 680.425 1981.48 607.728C2019.9 510.132 2042.85 411.717 2080.45 374.483C2100.63 354.502 2119.79 352.038 2147.67 364.269C2221.22 396.553 2295.48 561.376 2389.22 550.805C2476.14 541.006 2502.99 349.872 2609.95 257.693C2642.6 229.552 2679.92 241.544 2705.25 243.126" stroke="#58BDF6" stroke-width="0.826795" stroke-miterlimit="10"/>
<path d="M489.623 1013.4C549.295 1014.42 629.117 1011.08 694.899 957.695C776.607 891.382 764.73 777.68 855.16 735.23C966.337 683.038 1083.04 828.791 1210.41 822.361C1303.8 817.644 1310.92 703.492 1406.53 690.514C1520.48 675.051 1652.76 840.755 1780.91 815.46C1922.4 787.532 1964.02 703.827 1992.47 634.621C2032.02 538.427 2054.83 440.915 2090.93 401.993C2110.45 380.934 2129.07 376.912 2156.88 387.792C2230.72 416.667 2305.11 582.207 2398.95 571.627C2483.52 562.09 2510.69 378.878 2616.15 279.818C2647.11 250.732 2683.14 258.937 2707.56 256.907" stroke="#58BDF6" stroke-width="0.849141" stroke-miterlimit="10"/>
<path d="M498.169 1033.28C560.791 1037.61 644.537 1037.57 712.868 983.84C797.883 916.984 782.849 799.3 875.463 754.915C983.82 702.985 1098.15 840.787 1223.6 836.751C1314.6 833.822 1325.58 728.809 1419.67 717.831C1531.41 704.798 1660.95 860.048 1787.5 835.836C1932.6 808.074 1975.23 727.243 2003.45 661.521C2044.16 566.737 2066.79 470.105 2101.39 429.509C2120.25 407.368 2138.33 401.794 2166.09 411.322C2240.2 436.77 2314.72 603.045 2408.66 592.45C2490.87 583.181 2518.57 408.042 2622.33 301.944C2651.66 271.96 2686.35 276.337 2709.85 270.685" stroke="#58BDF6" stroke-width="0.8659" stroke-miterlimit="10"/>
<path d="M506.721 1053.15C572.286 1060.79 659.968 1064.06 730.843 1009.98C819.165 942.59 800.988 820.961 895.778 774.598C1001.34 722.961 1113.27 852.753 1236.8 851.144C1325.42 849.988 1340.24 754.123 1432.82 745.151C1542.35 734.537 1669.15 879.372 1794.11 856.209C1942.82 828.64 1986.51 750.669 2014.46 688.413C2056.38 595.04 2078.74 499.286 2111.87 457.016C2130.07 433.788 2147.63 426.66 2175.31 434.843C2249.72 456.846 2324.36 623.874 2418.4 613.265C2498.26 604.262 2526.7 437.347 2628.54 324.062C2656.28 293.214 2689.57 293.723 2712.17 284.459" stroke="#58BDF6" stroke-width="0.882659" stroke-miterlimit="10"/>
<path d="M515.274 1073.03C583.787 1083.98 675.4 1090.56 748.813 1036.13C840.441 968.192 819.153 842.667 916.082 794.278C1018.86 742.971 1128.38 864.687 1249.99 865.529C1336.22 866.127 1355.01 780.937 1445.96 772.463C1553.11 762.481 1677.35 898.71 1800.71 876.574C1953.03 849.242 1997.82 774.11 2025.45 715.301C2068.64 623.356 2090.67 528.455 2122.34 484.52C2139.87 460.2 2156.91 451.512 2184.52 458.361C2259.23 476.896 2333.98 644.699 2428.13 634.082C2505.63 625.346 2535.04 466.78 2634.74 346.181C2660.94 314.488 2692.79 311.117 2714.47 298.229" stroke="#58BDF6" stroke-width="0.899419" stroke-miterlimit="10"/>
<path d="M523.821 1092.92C595.278 1107.17 690.821 1117.07 766.783 1062.28C861.724 993.809 837.339 864.42 936.392 813.968C1036.42 763.018 1143.48 876.605 1263.18 879.93C1347.03 882.255 1369.53 804.728 1459.09 799.792C1564.19 793.999 1685.55 918.086 1807.3 896.96C1963.25 869.899 2009.19 797.585 2036.43 742.212C2080.95 651.713 2102.58 557.643 2132.8 512.047C2149.65 486.635 2166.19 476.375 2193.72 481.902C2268.73 496.947 2343.59 665.548 2437.85 654.916C2512.99 646.441 2543.63 496.333 2640.93 368.318C2665.65 335.791 2696 328.522 2716.76 312.023" stroke="#58BDF6" stroke-width="0.921765" stroke-miterlimit="10"/>
<path d="M532.374 1112.8C606.779 1130.35 706.253 1143.57 784.758 1088.42C883.007 1019.42 855.557 886.217 956.701 833.653C1053.98 783.092 1158.59 888.483 1276.38 894.319C1357.83 898.355 1384.19 830.016 1472.23 827.109C1575.12 823.706 1693.75 937.473 1813.91 917.33C1973.48 890.584 2020.62 821.072 2047.43 769.105C2093.35 680.085 2114.49 586.808 2143.28 539.561C2159.43 513.053 2175.47 501.221 2202.94 505.425C2278.26 516.956 2353.22 686.379 2447.58 675.732C2520.36 667.524 2552.49 525.953 2647.12 390.437C2670.41 357.085 2699.21 345.915 2719.07 325.793" stroke="#58BDF6" stroke-width="0.938524" stroke-miterlimit="10"/>
<path d="M540.926 1132.68C618.28 1153.54 721.685 1170.07 802.734 1114.57C904.295 1045.03 873.808 908.066 977.016 853.331C1071.58 803.181 1173.71 900.322 1289.58 908.708C1368.65 914.427 1398.85 855.299 1485.38 854.425C1586.05 853.409 1701.97 956.871 1820.51 937.699C1983.71 911.307 2032.1 844.578 2058.42 795.993C2105.83 708.49 2126.38 615.975 2153.75 567.066C2169.2 539.462 2184.76 526.051 2212.16 528.943C2287.78 536.933 2362.84 707.205 2457.31 696.544C2527.74 688.602 2561.61 555.623 2653.33 412.551C2675.24 378.367 2702.44 363.297 2721.38 339.563" stroke="#58BDF6" stroke-width="0.955283" stroke-miterlimit="10"/>
<path d="M549.472 1152.56C629.77 1176.73 737.111 1196.57 820.702 1140.72C925.572 1070.65 892.09 929.974 997.319 873.016C1089.18 823.297 1188.82 912.132 1302.76 923.098C1379.45 930.476 1413.49 880.565 1498.51 881.743C1596.97 883.1 1710.16 976.298 1827.11 958.075C1993.94 932.081 2043.62 868.124 2069.41 822.892C2118.4 736.954 2138.25 645.148 2164.22 594.58C2178.96 565.882 2194.05 550.88 2221.37 552.472C2297.28 556.9 2372.46 728.042 2467.03 717.372C2535.1 709.692 2570.99 585.338 2659.52 434.682C2680.1 399.652 2705.64 380.702 2723.67 353.346" stroke="#58BDF6" stroke-width="0.972043" stroke-miterlimit="10"/>
<path d="M558.024 1172.44C641.271 1199.91 752.64 1223.24 838.678 1166.87C946.983 1096.46 910.412 951.942 1017.63 892.707C1106.81 843.445 1203.95 923.908 1315.96 937.499C1390.27 946.514 1428.15 905.843 1511.66 909.071C1607.9 912.797 1718.38 995.747 1833.71 978.456C2004.19 952.905 2055.21 891.705 2080.41 849.797C2131.09 765.498 2150.11 674.335 2174.7 622.101C2188.73 592.309 2203.33 575.704 2230.59 576.007C2306.79 576.845 2382.09 748.884 2476.76 738.2C2542.49 730.787 2580.63 615.066 2665.73 456.812C2685.02 420.922 2708.87 398.101 2725.99 367.133" stroke="#58BDF6" stroke-width="0.988802" stroke-miterlimit="10"/>
<path d="M566.573 1192.32C652.767 1223.1 768.055 1249.73 856.649 1193.02C968.249 1122.06 928.773 973.973 1037.94 912.392C1124.45 863.597 1219.09 935.633 1329.15 951.889C1401.1 962.517 1442.8 931.092 1524.8 936.389C1618.83 942.465 1726.57 1015.2 1840.31 998.826C2014.43 973.763 2066.83 915.31 2091.39 876.691C2143.9 794.116 2161.95 703.517 2185.17 649.611C2198.47 618.725 2212.6 600.518 2239.8 599.531C2316.28 596.762 2391.71 769.71 2486.48 759.017C2549.85 751.871 2590.51 644.762 2671.91 478.933C2689.97 442.155 2712.08 415.495 2728.28 380.904" stroke="#58BDF6" stroke-width="1.01115" stroke-miterlimit="10"/>
<path d="M575.125 1212.2C664.263 1246.29 783.469 1276.21 874.623 1219.16C989.519 1147.66 947.178 996.062 1058.25 932.077C1142.11 883.77 1234.25 947.317 1342.35 966.285C1411.94 978.498 1457.47 956.335 1537.94 963.711C1629.77 972.128 1734.78 1034.67 1846.91 1019.21C2024.68 994.688 2078.51 938.973 2102.39 903.591C2156.87 822.867 2173.8 732.71 2195.64 677.127C2208.21 645.153 2221.94 626.049 2249.01 623.061C2325.55 614.596 2401.34 790.548 2496.21 779.846C2557.23 772.96 2600.62 674.433 2678.11 501.064C2694.96 463.379 2715.3 432.895 2730.59 394.692" stroke="#58BDF6" stroke-width="1.02791" stroke-miterlimit="10"/>
<path d="M583.677 1232.08C675.764 1269.48 798.889 1302.7 892.599 1245.31C1010.78 1173.25 965.64 1018.22 1078.56 951.762C1159.8 903.952 1249.42 958.949 1355.55 980.675C1422.79 994.443 1472.13 981.566 1551.08 991.029C1640.72 1001.77 1742.98 1054.16 1853.52 1039.58C2034.93 1015.65 2090.23 962.677 2113.38 930.485C2170 851.766 2185.63 761.899 2206.12 704.637C2217.95 671.576 2231.14 650.119 2258.23 646.584C2335.21 636.535 2410.96 811.379 2505.94 800.663C2564.6 794.045 2610.94 704.042 2684.31 523.184C2699.98 484.556 2718.51 450.283 2732.89 408.463" stroke="#58BDF6" stroke-width="1.04467" stroke-miterlimit="10"/>
<path d="M592.224 1251.96C687.26 1292.66 814.297 1329.19 910.563 1271.45C1032.04 1198.84 984.147 1040.46 1098.87 971.441C1177.5 924.137 1264.62 970.527 1368.73 995.064C1433.65 1010.36 1486.8 1006.78 1564.21 1018.35C1651.65 1031.41 1751.17 1073.65 1860.11 1059.95C2045.17 1036.68 2101.97 986.439 2124.36 957.384C2183.32 880.878 2197.44 791.106 2216.58 732.152C2227.66 698.011 2240.38 674.917 2267.43 670.108C2344.63 656.396 2420.57 832.211 2515.66 821.48C2571.96 815.128 2621.44 733.578 2690.5 545.309C2705.03 505.707 2721.72 467.683 2735.19 422.245" stroke="#58BDF6" stroke-width="1.06143" stroke-miterlimit="10"/>
<path d="M600.776 1271.84C698.755 1315.85 829.716 1355.67 928.537 1297.6C1053.31 1224.44 1002.72 1062.77 1119.18 991.126C1195.22 944.344 1279.86 982.058 1381.92 1009.45C1444.54 1026.27 1501.47 1031.99 1577.35 1045.66C1662.61 1061.03 1759.37 1093.16 1866.71 1080.32C2055.42 1057.75 2113.74 1010.27 2135.36 984.278C2196.9 910.255 2209.25 820.307 2227.05 759.661C2237.39 724.44 2249.63 699.705 2276.64 693.631C2354.05 676.241 2430.2 853.042 2525.39 842.297C2579.34 836.206 2632.11 763.038 2696.7 567.428C2710.11 526.817 2724.94 485.07 2737.49 436.015" stroke="#58BDF6" stroke-width="1.08377" stroke-miterlimit="10"/>
<path d="M609.328 1291.72C710.256 1339.04 845.13 1382.17 946.512 1323.75C1074.58 1250.04 1021.36 1085.18 1139.49 1010.81C1212.97 964.558 1295.15 993.538 1395.12 1023.85C1455.46 1042.15 1516.19 1057.07 1590.51 1072.99C1673.61 1090.5 1767.57 1112.69 1873.32 1100.7C2065.69 1078.89 2125.54 1034.19 2146.35 1011.18C2210.75 939.995 2221.07 849.523 2237.54 787.174C2247.13 750.878 2258.88 724.49 2285.87 717.158C2363.45 696.08 2439.84 873.876 2535.13 863.122C2586.72 857.299 2642.95 792.416 2702.91 589.556C2715.22 547.9 2728.17 502.472 2739.81 449.8" stroke="#58BDF6" stroke-width="1.10053" stroke-miterlimit="10"/>
<path d="M617.875 1311.6C721.752 1362.22 860.544 1408.65 964.482 1349.89C1095.84 1275.63 1040.08 1107.67 1159.79 1030.49C1319.65 927.449 1524.19 1159.15 1879.91 1121.07C2075.94 1100.09 2137.31 1058.2 2157.34 1038.07C2264.29 930.62 2221.88 764.007 2295.07 740.689C2372.82 715.92 2449.45 894.715 2544.85 883.946C2604.11 877.255 2678.66 796.512 2742.1 463.578" stroke="#58BDF6" stroke-width="1.11729" stroke-miterlimit="10"/>
</g>
<g clip-path="url(#clip2_820_594)">
<path d="M-310.78 5.94805C-270.808 8.71302 -217.35 8.68922 -173.733 -25.6083C-119.466 -68.2841 -129.063 -143.405 -69.9448 -171.736C-0.777876 -204.885 72.2019 -116.922 152.28 -119.499C210.369 -121.368 217.372 -188.401 277.435 -195.408C348.759 -203.728 431.447 -104.628 512.23 -120.083C604.849 -137.804 632.063 -189.4 650.078 -231.352C676.061 -291.855 690.504 -353.538 712.59 -379.451C724.634 -393.584 736.174 -397.142 753.889 -391.06C801.198 -374.816 848.767 -268.679 908.732 -275.442C961.206 -281.359 978.889 -393.154 1045.12 -460.878C1063.84 -480.018 1085.99 -477.224 1100.99 -480.832" stroke="#58BDF6" stroke-width="0.552724" stroke-miterlimit="10"/>
<path d="M-305.321 18.6367C-263.47 23.5114 -207.501 25.6009 -162.259 -8.92012C-105.882 -51.9394 -117.485 -129.578 -56.9777 -159.172C10.405 -192.134 81.8528 -109.284 160.706 -110.311C217.273 -111.049 226.732 -172.242 285.83 -177.969C355.742 -184.744 436.686 -92.2926 516.449 -107.078C611.372 -124.676 639.26 -174.447 657.101 -214.186C683.858 -273.789 698.137 -334.91 719.281 -361.892C730.901 -376.719 742.107 -381.269 759.777 -376.046C807.273 -362.001 854.918 -255.383 914.95 -262.155C965.921 -267.902 984.074 -374.447 1049.09 -446.76C1066.79 -466.451 1088.04 -466.126 1102.46 -472.04" stroke="#58BDF6" stroke-width="0.563422" stroke-miterlimit="10"/>
<path d="M-299.862 31.3263C-256.129 38.3105 -197.651 42.5136 -150.789 7.76947C-92.3009 -35.5969 -105.889 -115.722 -44.0177 -146.61C21.5899 -179.36 91.4951 -101.666 169.124 -101.129C224.169 -100.747 236.163 -155.126 294.214 -160.535C362.614 -166.906 441.915 -79.9485 520.66 -94.0787C617.89 -111.525 646.483 -159.484 664.116 -197.023C691.685 -255.713 705.752 -316.291 725.965 -344.336C737.153 -359.86 748.032 -365.405 765.659 -361.033C813.346 -349.202 861.061 -242.089 921.157 -248.867C970.626 -254.443 989.402 -355.659 1053.04 -432.64C1069.76 -452.871 1090.1 -455.023 1103.94 -463.249" stroke="#58BDF6" stroke-width="0.57412" stroke-miterlimit="10"/>
<path d="M-294.406 44.0205C-248.794 53.118 -187.807 59.4347 -139.318 24.4632C-78.7151 -19.2433 -94.2806 -101.835 -31.0532 -134.04C32.7951 -166.563 101.137 -94.0575 177.544 -91.9354C231.064 -90.4507 245.431 -139.938 302.599 -143.089C369.684 -146.787 447.151 -67.5792 524.869 -81.0641C624.412 -98.3379 653.736 -144.497 671.126 -179.844C699.546 -237.611 713.354 -297.659 732.643 -326.763C743.397 -342.984 753.954 -349.533 771.531 -346.005C819.412 -336.402 867.196 -228.78 927.359 -235.567C975.325 -240.976 994.884 -336.794 1056.99 -418.509C1072.77 -439.271 1092.14 -443.912 1105.4 -454.443" stroke="#58BDF6" stroke-width="0.588384" stroke-miterlimit="10"/>
<path d="M-288.947 56.7102C-241.453 67.9171 -177.956 76.3509 -127.844 41.1524C-65.1304 -2.89762 -82.652 -87.9218 -18.0894 -121.475C44.0085 -153.748 110.783 -86.4752 185.966 -82.7499C237.962 -80.1733 254.786 -123.796 310.987 -125.652C376.659 -127.823 452.386 -55.2034 529.084 -68.0615C630.941 -85.1341 661.033 -129.505 678.145 -162.677C707.461 -219.5 720.954 -279.041 739.331 -309.2C749.642 -326.121 759.882 -333.673 777.416 -330.99C825.494 -323.629 873.34 -215.483 933.57 -222.279C980.033 -227.518 1000.54 -317.886 1060.95 -404.389C1075.81 -425.679 1094.2 -432.809 1106.87 -445.653" stroke="#58BDF6" stroke-width="0.599081" stroke-miterlimit="10"/>
<path d="M-283.487 69.3999C-234.11 82.7162 -168.105 93.2673 -116.37 57.8417C-51.5408 13.4515 -71.0016 -73.9744 -5.12133 -108.913C55.238 -140.925 120.432 -78.918 194.393 -73.5646C244.865 -69.9142 264.142 -107.657 319.379 -108.215C383.638 -108.864 457.63 -42.8211 533.3 -55.0588C637.474 -71.9055 668.36 -114.501 685.162 -145.513C715.426 -201.368 728.541 -260.423 746.016 -291.643C755.878 -309.263 765.81 -317.824 783.298 -315.977C831.567 -310.877 879.484 -202.189 939.782 -208.994C984.742 -214.063 1006.36 -298.947 1064.91 -390.273C1078.89 -412.093 1096.25 -421.713 1108.34 -436.863" stroke="#58BDF6" stroke-width="0.609779" stroke-miterlimit="10"/>
<path d="M-278.033 82.0876C-226.777 97.5172 -158.259 110.185 -104.9 74.529C-37.9599 29.8023 -59.332 -59.9917 7.83802 -96.3493C66.4742 -128.086 130.078 -71.3809 202.811 -64.381C251.763 -59.6714 273.492 -91.5309 327.763 -90.7791C390.607 -89.9127 462.864 -30.4224 537.511 -42.0546C644.004 -58.6468 675.717 -99.4724 692.177 -128.345C723.452 -183.201 736.119 -241.803 752.699 -274.081C762.108 -292.4 771.736 -301.977 789.176 -300.96C837.635 -298.134 885.624 -188.89 945.986 -195.701C989.442 -200.603 1012.35 -279.981 1068.86 -376.148C1082 -398.509 1098.3 -410.605 1109.81 -428.067" stroke="#58BDF6" stroke-width="0.620477" stroke-miterlimit="10"/>
<path d="M-272.574 94.7791C-219.436 112.318 -148.346 127.205 -93.4263 91.2237C-24.2923 46.2825 -47.6369 -45.9677 20.8058 -83.7787C77.7274 -115.224 139.736 -63.8623 211.234 -55.1866C258.667 -49.4321 282.846 -75.394 336.155 -73.3331C397.588 -70.955 468.106 -18.006 541.727 -29.043C650.545 -45.3527 683.112 -84.4184 699.197 -111.169C731.552 -164.979 743.692 -223.171 759.387 -256.512C768.34 -275.53 777.663 -286.129 795.061 -285.935C843.702 -285.401 891.772 -175.584 952.201 -182.404C994.154 -187.136 1018.5 -261.003 1072.82 -362.02C1085.14 -384.93 1100.36 -399.497 1111.29 -419.265" stroke="#58BDF6" stroke-width="0.631175" stroke-miterlimit="10"/>
<path d="M-267.117 107.472C-212.097 127.121 -138.506 144.115 -81.9552 107.916C-10.7182 62.6218 -35.9162 -31.9049 33.7667 -71.2131C88.9886 -102.36 149.397 -56.378 219.653 -46.0011C265.578 -39.2169 292.2 -59.2768 344.54 -55.8956C404.565 -52.0168 473.338 -5.59087 545.939 -16.0404C657.081 -32.0388 690.534 -69.3508 706.21 -94.0017C739.728 -146.711 751.251 -204.543 766.068 -238.952C774.558 -258.667 783.579 -270.29 800.94 -270.92C849.758 -272.687 897.913 -162.29 958.406 -169.116C998.856 -173.678 1024.81 -242.047 1076.77 -347.9C1088.29 -371.376 1102.41 -388.394 1112.75 -410.474" stroke="#58BDF6" stroke-width="0.645439" stroke-miterlimit="10"/>
<path d="M-261.658 120.161C-204.759 141.923 -128.667 161.021 -70.4813 124.605C2.85891 78.9604 -24.1679 -17.8055 46.7341 -58.6485C100.265 -89.4843 159.075 -48.9207 228.079 -36.8129C272.497 -29.0171 301.56 -43.1642 352.931 -38.4556C411.548 -33.0832 478.579 6.84117 550.155 -3.03124C663.624 -18.6828 697.987 -54.2469 713.229 -76.8319C748.004 -128.36 758.814 -185.909 772.756 -221.389C780.779 -241.798 789.544 -253.993 806.822 -255.901C855.679 -261.304 904.057 -148.99 964.617 -155.821C1003.56 -160.216 1031.26 -223.108 1080.73 -333.774C1091.48 -357.829 1104.47 -377.288 1114.22 -401.674" stroke="#58BDF6" stroke-width="0.656137" stroke-miterlimit="10"/>
<path d="M-256.198 132.851C-197.417 156.723 -118.824 177.931 -59.0066 141.295C16.4331 95.2967 -12.3827 -3.66172 59.6989 -46.0827C111.553 -76.6011 168.763 -41.4955 236.503 -27.6272C279.426 -18.8387 310.924 -27.0582 361.32 -21.0179C418.535 -14.1596 483.813 19.2782 554.37 9.97167C670.169 -5.30114 705.468 -39.1157 720.246 -59.6644C756.389 -109.912 766.362 -167.277 779.441 -203.829C786.994 -224.932 795.413 -238.629 812.704 -240.885C861.844 -247.299 910.198 -135.692 970.826 -142.533C1008.27 -146.758 1037.85 -204.208 1084.69 -319.654C1094.69 -344.311 1106.52 -366.188 1115.7 -392.883" stroke="#58BDF6" stroke-width="0.666835" stroke-miterlimit="10"/>
<path d="M-250.743 145.539C-190.079 171.519 -108.988 194.835 -47.5399 157.982C30.003 111.634 -0.569177 10.5305 72.6589 -33.5229C122.851 -63.718 178.465 -34.1065 244.918 -18.4436C286.357 -8.67759 320.283 -10.9652 369.701 -3.58234C425.513 4.75469 489.041 31.7202 558.575 22.9762C676.703 8.11803 712.962 -23.9491 727.255 -42.4956C764.892 -91.3314 773.901 -148.635 786.119 -186.267C793.194 -208.059 801.314 -222.801 818.579 -225.871C867.861 -234.624 916.335 -122.397 977.03 -129.247C1012.97 -133.301 1044.55 -185.356 1088.63 -305.533C1097.91 -330.812 1108.56 -355.084 1117.16 -384.088" stroke="#58BDF6" stroke-width="0.677533" stroke-miterlimit="10"/>
<path d="M-245.285 158.229C-182.743 186.319 -99.1471 211.742 -36.0671 174.671C43.5788 127.97 11.287 24.7752 85.6218 -20.9573C134.164 -50.8193 188.192 -26.7458 253.339 -9.25802C293.307 1.47364 329.651 5.12583 378.088 13.8551C432.507 23.6629 494.271 44.1751 562.79 35.9789C683.249 21.5709 720.477 -8.73892 734.274 -25.3287C773.559 -72.5792 781.441 -129.995 792.805 -168.707C799.403 -191.189 807.216 -206.978 824.459 -210.855C873.868 -221.955 922.478 -109.1 983.24 -115.959C1017.68 -119.846 1051.37 -166.551 1092.59 -291.413C1101.15 -317.336 1110.62 -343.984 1118.63 -375.297" stroke="#58BDF6" stroke-width="0.691796" stroke-miterlimit="10"/>
<path d="M-239.825 170.921C-175.401 201.125 -89.3076 228.655 -24.593 191.364C57.1562 144.312 23.1851 39.0804 98.5896 -8.38894C145.492 -37.9152 197.949 -19.4167 261.766 -0.0661319C300.278 11.6119 339.045 21.1355 386.484 31.2986C439.53 42.4788 499.508 56.6434 567.009 48.9879C689.804 35.0656 728.008 6.53038 741.293 -8.15868C782.396 -53.5949 788.984 -111.345 799.497 -151.144C805.618 -174.312 813.123 -191.156 830.349 -195.837C879.873 -209.291 928.63 -95.7997 989.456 -102.664C1022.39 -106.382 1058.28 -147.797 1096.56 -277.288C1104.42 -303.878 1112.68 -332.875 1120.11 -366.497" stroke="#58BDF6" stroke-width="0.702494" stroke-miterlimit="10"/>
<path d="M-234.37 183.612C-168.063 215.925 -79.4685 245.562 -13.1224 208.054C70.7261 160.649 35.1307 53.4368 111.55 4.17438C213.589 -61.6024 344.151 86.2954 571.217 61.9922C696.344 48.5988 735.519 21.8566 748.306 9.00986C816.578 -59.5781 789.501 -165.931 836.223 -180.816C885.849 -196.626 934.767 -82.4972 995.66 -89.3709C1033.49 -93.6425 1081.08 -145.182 1121.57 -357.702" stroke="#58BDF6" stroke-width="0.713192" stroke-miterlimit="10"/>
</g>
</g>
<defs>
<clipPath id="clip0_820_594">
<rect width="1920" height="466" fill="white"/>
</clipPath>
<clipPath id="clip1_820_594">
<rect width="2401.13" height="1322.05" fill="white" transform="translate(302 98.7219) rotate(-4.84312)"/>
</clipPath>
<clipPath id="clip2_820_594">
<rect width="1532.7" height="843.895" fill="white" transform="translate(-436 -590.598) rotate(-4.84312)"/>
</clipPath>
</defs>
</svg>
