<svg width="313" height="127" viewBox="0 0 313 127" fill="none" xmlns="http://www.w3.org/2000/svg">
<g opacity="0.6" clip-path="url(#clip0_639_820)">
<path d="M87.9113 85.7026H0V84.6132H87.9086L88.5459 84.5968L89.4338 84.5097C90.2237 84.4116 90.9999 84.2373 91.7434 83.9895C93.2278 83.4965 94.6495 82.6876 95.8478 81.6499C97.0544 80.6095 98.0675 79.3131 98.7757 77.9023C99.4892 76.4861 99.9114 74.9609 100.031 73.3676L100.058 73.068L100.102 71.1315C100.116 70.5732 100.129 70.0149 100.154 69.4565L100.306 67.4139C100.592 64.3934 101.028 61.7407 101.635 59.2922C102.333 56.4243 103.152 53.8587 104.141 51.451C105.25 48.7247 106.434 46.3089 107.766 44.0701C110.517 39.3611 113.962 35.066 118.001 31.3075C118.377 30.9398 118.783 30.5885 119.178 30.248L119.635 29.8504C120.109 29.4391 120.602 29.0143 121.114 28.6193L121.425 28.3742C121.855 28.0365 122.286 27.696 122.721 27.3665L124.388 26.179C126.837 24.5122 129.154 23.1531 131.483 22.0174C134.147 20.7292 136.644 19.7214 139.114 18.9398C139.561 18.7845 140.03 18.6538 140.484 18.5258C140.683 18.4686 140.882 18.4141 141.081 18.3569L142.07 18.0791C142.306 18.0165 142.538 17.962 142.772 17.9075L143.557 17.7251C144.058 17.6079 144.575 17.4881 145.087 17.3846L147.105 17.0224C147.601 16.9271 148.108 16.8644 148.595 16.8018C148.778 16.78 148.96 16.7555 149.143 16.731L149.527 16.6819C150.071 16.6138 150.635 16.5403 151.202 16.5049L153.223 16.3551C153.789 16.3279 154.342 16.317 154.892 16.3034L155.568 16.287C155.81 16.2816 156.055 16.2761 156.297 16.2761L157.322 16.2979C157.518 16.3034 157.706 16.3088 157.896 16.3115C158.378 16.3224 158.874 16.336 159.367 16.366L159.457 16.3714C160.767 16.464 162.12 16.5594 163.458 16.75C164.585 16.8753 165.729 17.085 166.838 17.2893L167.497 17.4091L168.15 17.5562C169.256 17.804 170.403 18.0628 171.517 18.3978C172.748 18.7273 173.979 19.1522 175.172 19.5607L175.422 19.6479L175.888 19.8277C176.999 20.2553 178.146 20.6965 179.249 21.214C189.185 25.6697 197.87 33.214 203.698 42.4469C205.24 44.8927 206.542 47.333 207.571 49.6998C208.759 52.3961 209.666 54.9317 210.341 57.451L210.614 58.4288L210.853 59.442C210.897 59.6408 210.943 59.8342 210.987 60.0275C211.096 60.4933 211.207 60.9753 211.297 61.4574L211.657 63.4674C211.744 63.944 211.804 64.4261 211.861 64.8891C211.885 65.0934 211.913 65.3004 211.94 65.5046L212.065 66.5205C212.095 66.7547 212.112 66.9917 212.131 67.2259C212.139 67.3349 212.147 67.4438 212.158 67.5528L212.308 69.5845L212.395 72.7929C212.441 74.3344 212.79 75.8215 213.43 77.2051C214.07 78.5914 215.004 79.8633 216.137 80.8873C217.273 81.9114 218.626 82.7149 220.051 83.2051C220.764 83.4529 221.505 83.6273 222.26 83.728L222.401 83.7471C222.543 83.7662 222.674 83.7852 222.799 83.7879L222.995 83.8043C223.131 83.8152 223.259 83.8288 223.379 83.8233H223.395L224.302 83.837H312.93V84.9264H223.749L223.395 84.9128C223.218 84.9155 223.058 84.9019 222.902 84.8883L222.761 84.8774C222.581 84.8719 222.415 84.8501 222.254 84.8283L222.121 84.8093C221.293 84.7003 220.478 84.507 219.697 84.2373C218.136 83.6981 216.652 82.8211 215.41 81.699C214.171 80.5769 213.146 79.1824 212.444 77.6654C211.744 76.1456 211.363 74.5169 211.311 72.8283L211.226 69.6445L211.079 67.6454C211.071 67.5419 211.06 67.4275 211.052 67.3158C211.036 67.0979 211.019 66.8773 210.992 66.6594L210.867 65.649C210.84 65.4474 210.812 65.2377 210.788 65.028C210.731 64.5786 210.673 64.1102 210.592 63.6635L210.232 61.6562C210.148 61.2014 210.039 60.7302 209.933 60.2754C209.886 60.0793 209.843 59.8832 209.796 59.6871L209.565 58.7012L209.298 57.7397C208.634 55.2722 207.746 52.7856 206.58 50.1383C205.572 47.8205 204.295 45.4292 202.783 43.0297C197.069 33.9766 188.553 26.5794 178.802 22.2053C177.726 21.7015 176.596 21.2657 175.504 20.8463L174.823 20.593C173.649 20.1899 172.437 19.7705 171.225 19.4464C170.13 19.1168 169.006 18.8635 167.916 18.6184L167.284 18.4768L166.644 18.3597C165.555 18.1608 164.43 17.9538 163.324 17.8286C162.009 17.6406 160.674 17.548 159.383 17.4554L159.299 17.45C158.83 17.42 158.343 17.4091 157.874 17.3982C157.681 17.3928 157.49 17.3901 157.297 17.3846L156.289 17.3628C156.066 17.3628 155.829 17.3683 155.595 17.3737L154.919 17.3901C154.375 17.4037 153.833 17.4173 153.288 17.4418L151.278 17.5916C150.741 17.627 150.194 17.6951 149.666 17.7632L149.284 17.8122C149.104 17.8367 148.919 17.8612 148.734 17.883C148.263 17.9429 147.775 18.0029 147.307 18.0927L145.294 18.455C144.807 18.5558 144.297 18.6729 143.804 18.7873L143.02 18.9697C142.799 19.0215 142.579 19.0732 142.358 19.1304L141.383 19.4028C141.187 19.46 140.986 19.5172 140.781 19.5744C140.343 19.6969 139.888 19.8249 139.458 19.972C137.023 20.7428 134.574 21.7287 131.96 22.9952C129.68 24.1064 127.406 25.4382 125.009 27.0696L123.361 28.2435C122.942 28.5594 122.52 28.8944 122.095 29.2267L121.779 29.4773C121.286 29.8558 120.807 30.2698 120.344 30.6729L119.886 31.0705C119.505 31.4001 119.11 31.7433 118.75 32.0946C114.779 35.7905 111.402 40.0011 108.703 44.623C107.398 46.8182 106.236 49.185 105.149 51.8623C104.179 54.2182 103.376 56.7347 102.692 59.5509C102.096 61.9504 101.671 64.5514 101.39 67.5037L101.24 69.5192C101.216 70.053 101.202 70.6059 101.191 71.156L101.145 73.1415L101.118 73.4547C100.99 75.1815 100.53 76.8456 99.7507 78.3898C98.9772 79.9259 97.8742 81.3367 96.5614 82.4697C95.2541 83.6 93.7071 84.4825 92.0866 85.019C91.275 85.2886 90.4279 85.4793 89.5755 85.5855L89.2323 85.6318L88.5786 85.6808L87.9141 85.6972L87.9113 85.7026Z" fill="#58BDF6"/>
<path d="M87.8106 93.9631H0V92.8736H87.8977L88.9681 92.8464L89.9676 92.7701L90.4606 92.7075C91.7843 92.5414 93.0916 92.2472 94.3471 91.8278C96.8501 90.9971 99.2387 89.638 101.249 87.8977C103.261 86.1573 104.955 83.9894 106.148 81.6253C107.358 79.234 108.068 76.663 108.267 73.983L108.308 73.4818L108.365 71.175C108.376 70.7474 108.387 70.317 108.403 69.8894L108.534 68.1464C108.785 65.5345 109.155 63.2712 109.667 61.2176C110.269 58.7501 110.966 56.563 111.802 54.5367C112.756 52.1917 113.769 50.1327 114.894 48.2452C117.239 44.2307 120.177 40.5675 123.626 37.3564C123.933 37.0541 124.268 36.7627 124.595 36.4822C124.707 36.3868 124.818 36.2888 124.93 36.1935L125.069 36.0736C125.458 35.7359 125.864 35.3846 126.289 35.0605L126.662 34.7663C126.992 34.5076 127.321 34.2461 127.656 33.9928L129.081 32.9796C131.194 31.5443 133.172 30.3841 135.135 29.4308C137.431 28.3223 139.558 27.4671 141.639 26.808C142.004 26.68 142.394 26.5711 142.767 26.4676C142.949 26.4158 143.132 26.3668 143.311 26.3124L144.153 26.0754C144.352 26.0209 144.545 25.9774 144.739 25.9338L145.515 25.754C145.918 25.6614 146.321 25.5661 146.727 25.4844L148.448 25.1766C148.857 25.0949 149.279 25.0432 149.685 24.9941C149.851 24.9724 150.02 24.9533 150.186 24.9288L150.564 24.8825C151.014 24.8253 151.479 24.7654 151.948 24.7381L153.666 24.6101C154.105 24.5911 154.527 24.5802 154.949 24.5693L155.704 24.5502C155.903 24.5448 156.099 24.5393 156.297 24.5393L157.174 24.5584C157.362 24.5638 157.545 24.5693 157.727 24.572C158.117 24.5802 158.523 24.5911 158.926 24.6156L159.244 24.6374C160.282 24.7136 161.355 24.7899 162.415 24.9451C163.311 25.0432 164.226 25.2093 165.108 25.37C165.356 25.4163 165.604 25.4599 165.852 25.5035L165.879 25.5089C166.119 25.5634 166.358 25.6178 166.598 25.6723C167.48 25.8711 168.393 26.0781 169.281 26.3478C170.25 26.6038 171.225 26.9388 172.168 27.2602L172.603 27.4099L173.2 27.6415C174.082 27.9819 174.995 28.3332 175.872 28.7499C184.345 32.5493 191.756 38.9851 196.729 46.8644C198.072 48.9997 199.153 51.0233 200.033 53.0496C201.051 55.3701 201.825 57.5299 202.394 59.6543L202.625 60.485L202.83 61.3538C202.87 61.5417 202.914 61.7215 202.955 61.9012C203.045 62.2825 203.137 62.6747 203.208 63.0724L203.513 64.7828C203.587 65.175 203.636 65.5726 203.682 65.9566C203.704 66.1445 203.728 66.3325 203.753 66.5204L203.862 67.3865C203.886 67.5853 203.903 67.7841 203.916 67.983C203.924 68.0783 203.93 68.1736 203.938 68.2689L204.066 70.0038L204.145 73.0515C204.224 75.7124 204.829 78.2808 205.94 80.6829C207.04 83.0661 208.65 85.2558 210.597 87.0152C212.55 88.7801 214.884 90.1637 217.352 91.0162C218.588 91.4438 219.876 91.7488 221.181 91.9231L221.328 91.9422C221.611 91.9803 221.878 92.0157 222.145 92.0266L222.366 92.043C222.633 92.0647 222.881 92.0811 223.137 92.0838L224.308 92.1029H312.935V93.1923H223.774L223.123 93.1732C222.842 93.1732 222.556 93.1515 222.279 93.1297L222.08 93.1133C221.783 93.0997 221.478 93.0588 221.186 93.0207L221.039 93.0016C219.661 92.8192 218.299 92.4978 216.995 92.0457C214.391 91.1469 211.926 89.6871 209.867 87.8241C207.814 85.9667 206.114 83.6544 204.954 81.1405C203.78 78.6049 203.143 75.8949 203.058 73.0815L202.979 70.0583L202.854 68.3588C202.846 68.2662 202.838 68.1654 202.832 68.0647C202.819 67.8849 202.805 67.7024 202.783 67.5227L202.677 66.662C202.653 66.4768 202.628 66.2834 202.604 66.0901C202.557 65.706 202.511 65.3411 202.443 64.9789L202.138 63.2685C202.07 62.9008 201.98 62.5195 201.895 62.1518C201.852 61.9666 201.808 61.7814 201.767 61.5962L201.571 60.7573L201.343 59.943C200.787 57.8676 200.033 55.7569 199.033 53.4854C198.175 51.5081 197.118 49.5335 195.806 47.4445C190.947 39.745 183.705 33.4563 175.414 29.7386C174.562 29.3355 173.668 28.9923 172.805 28.6573L172.228 28.434L171.811 28.2924C170.888 27.9764 169.932 27.6496 168.981 27.3963C168.11 27.1321 167.216 26.9306 166.356 26.7345C166.119 26.68 165.882 26.6283 165.645 26.5711C165.4 26.5275 165.154 26.4839 164.907 26.4376C164.043 26.2797 163.15 26.1163 162.273 26.0209C161.233 25.8711 160.179 25.7949 159.16 25.7213L158.844 25.6995C158.468 25.675 158.076 25.6669 157.695 25.6587C157.509 25.6532 157.324 25.6505 157.139 25.6451L156.281 25.626C156.104 25.626 155.916 25.6315 155.725 25.6369L154.971 25.656C154.557 25.6669 154.14 25.675 153.726 25.6941L152.016 25.8221C151.575 25.8493 151.147 25.9038 150.695 25.961L150.319 26.0073C150.156 26.0291 149.984 26.0509 149.813 26.0727C149.407 26.1244 149.023 26.1707 148.644 26.2443L146.928 26.552C146.544 26.631 146.152 26.7236 145.757 26.8135L145.262 26.9279C145.172 26.9497 145.076 26.9715 144.978 26.9932C144.799 27.0341 144.616 27.0749 144.439 27.124L143.611 27.3582C143.431 27.4099 143.243 27.4644 143.058 27.5162C142.682 27.6197 142.328 27.7204 141.98 27.8403C139.932 28.4858 137.853 29.3246 135.606 30.4086C133.695 31.3401 131.761 32.4731 129.699 33.873L128.299 34.8698C127.983 35.1095 127.659 35.3655 127.335 35.6188L126.954 35.9184C126.551 36.2261 126.158 36.5639 125.783 36.8934L125.646 37.0105C125.537 37.1086 125.423 37.2066 125.309 37.3047C124.982 37.5879 124.674 37.8521 124.38 38.1408C120.997 41.2893 118.127 44.8707 115.833 48.7981C114.733 50.642 113.747 52.652 112.813 54.948C111.999 56.9253 111.315 59.0605 110.727 61.4763C110.226 63.4782 109.863 65.6897 109.621 68.2362L109.493 69.9521C109.477 70.3552 109.466 70.7773 109.455 71.1995L109.398 73.5499L109.357 74.062C109.15 76.8836 108.398 79.5935 107.123 82.1128C105.868 84.6022 104.084 86.8845 101.965 88.7175C99.846 90.5504 97.3322 91.983 94.6958 92.8573C93.3721 93.2985 91.994 93.609 90.6022 93.7833L90.0657 93.8514L89.0117 93.9304L87.8133 93.9603L87.8106 93.9631Z" fill="#58BDF6"/>
<path d="M86.762 102.224C86.4624 102.224 86.1655 102.224 85.8714 102.224H0V101.134H85.8741C87.7234 101.14 89.6381 101.148 91.4847 100.903C93.3476 100.671 95.186 100.254 96.9563 99.6662C100.481 98.4978 103.833 96.5886 106.652 94.1455C109.474 91.7079 111.849 88.6657 113.521 85.3484C115.199 82.0311 116.231 78.3134 116.503 74.5984L116.558 73.8849L116.623 71.2621C116.631 70.9516 116.637 70.6384 116.65 70.3279L116.759 68.8817C116.977 66.6456 117.274 64.8263 117.699 63.1486C118.203 61.0814 118.783 59.2729 119.464 57.6279C120.265 55.6642 121.101 53.9592 122.021 52.4259C123.958 49.1086 126.393 46.0718 129.252 43.4109C129.495 43.1685 129.767 42.9342 130.029 42.7109C130.129 42.6238 130.23 42.5366 130.331 42.4494L130.492 42.3105C130.802 42.0409 131.121 41.7631 131.461 41.5071C131.584 41.4118 131.715 41.3083 131.845 41.2048C132.09 41.0114 132.338 40.8153 132.589 40.6274L133.768 39.7885C135.549 38.582 137.183 37.6233 138.779 36.8498C140.708 35.9238 142.467 35.2129 144.156 34.6818C144.447 34.5783 144.758 34.4912 145.06 34.4095C145.218 34.3659 145.379 34.3223 145.537 34.2733L146.231 34.0745C146.392 34.0309 146.55 33.9955 146.708 33.9601C146.789 33.941 146.868 33.9247 146.95 33.9029C147.119 33.8648 147.282 33.8266 147.443 33.7885C147.748 33.7177 148.053 33.6469 148.361 33.5815L149.783 33.3282C150.109 33.2601 150.45 33.2193 150.777 33.1811C150.924 33.1621 151.071 33.1457 151.218 33.1239C151.343 33.1076 151.458 33.094 151.572 33.0776C151.932 33.0313 152.305 32.9823 152.686 32.9633L154.1 32.8543C154.429 32.8407 154.742 32.8325 155.055 32.8244C155.222 32.8216 155.388 32.8162 155.557 32.8107L155.813 32.8053C155.971 32.7998 156.129 32.7971 156.287 32.7971L157.016 32.8162C157.188 32.8216 157.354 32.8244 157.52 32.8298C157.828 32.8352 158.149 32.8434 158.468 32.8625L158.939 32.8979C159.732 32.9551 160.552 33.0177 161.361 33.1376C162.047 33.2084 162.752 33.3364 163.433 33.4617C163.686 33.508 163.94 33.5543 164.196 33.5978L164.228 33.606C164.476 33.6659 164.724 33.7204 164.972 33.7776C165.65 33.9328 166.353 34.0908 167.039 34.3033C167.772 34.4939 168.513 34.7472 169.232 34.9923L169.806 35.1884C170.016 35.2728 170.228 35.3546 170.438 35.4363C171.114 35.6977 171.811 35.9674 172.486 36.2915C179.497 39.4345 185.633 44.7618 189.748 51.2874C190.873 53.0768 191.766 54.7518 192.483 56.405C193.335 58.3469 193.975 60.1336 194.433 61.863L194.626 62.5439L194.792 63.2657C194.83 63.4345 194.869 63.5952 194.907 63.7586C194.978 64.061 195.051 64.3715 195.108 64.6901L195.359 66.1009C195.419 66.4141 195.457 66.7355 195.495 67.046C195.514 67.2094 195.533 67.3728 195.558 67.539L195.648 68.2553C195.669 68.4187 195.68 68.5821 195.691 68.7455C195.697 68.8272 195.702 68.9089 195.71 68.9879L195.819 70.4205L195.893 73.3075C196.002 77.036 196.884 80.7891 198.447 84.1555C200.011 87.5354 202.293 90.643 205.052 93.1405C207.819 95.6462 211.136 97.6126 214.644 98.8246C216.409 99.4347 218.242 99.8704 220.097 100.116L220.19 100.126C220.634 100.184 221.053 100.238 221.478 100.263L221.658 100.276C222.08 100.309 222.477 100.342 222.878 100.342C223.578 100.366 224.278 100.366 224.959 100.363C225.22 100.363 225.479 100.363 225.74 100.363H312.935V101.453H225.738C225.476 101.453 225.217 101.453 224.961 101.453C224.272 101.453 223.561 101.453 222.859 101.428C222.434 101.428 221.998 101.393 221.576 101.36L221.41 101.347C220.958 101.322 220.497 101.262 220.053 101.205L219.961 101.194C218.033 100.941 216.126 100.489 214.293 99.8541C210.649 98.5931 207.201 96.5504 204.325 93.9494C201.457 91.3539 199.085 88.1264 197.461 84.6157C195.838 81.1159 194.92 77.2158 194.806 73.3402L194.732 70.4777L194.626 69.0778C194.618 68.9961 194.613 68.9089 194.607 68.8218C194.596 68.6801 194.588 68.5358 194.569 68.3942L194.479 67.6833C194.455 67.5199 194.436 67.3483 194.414 67.1767C194.378 66.8717 194.343 66.5857 194.288 66.2997L194.035 64.8835C193.983 64.5975 193.915 64.3115 193.845 64.0119C193.804 63.8458 193.766 63.6769 193.727 63.5081L193.567 62.8163L193.379 62.1517C192.932 60.4686 192.311 58.7337 191.48 56.8408C190.786 55.2366 189.917 53.6106 188.825 51.8703C184.821 45.5216 178.857 40.3414 172.026 37.2801C171.378 36.9696 170.697 36.7082 170.041 36.4521C169.831 36.3704 169.624 36.2915 169.414 36.207C169.234 36.1471 169.055 36.0845 168.878 36.0245C168.178 35.7876 167.456 35.5398 166.74 35.3518C166.07 35.1448 165.389 34.9923 164.73 34.8425C164.484 34.7853 164.237 34.7309 163.992 34.6737C163.738 34.6301 163.488 34.5838 163.234 34.5375C162.573 34.4176 161.889 34.2924 161.219 34.2243C160.426 34.1072 159.626 34.0472 158.855 33.99L158.386 33.9546C158.098 33.9356 157.804 33.9301 157.493 33.922C157.322 33.9192 157.15 33.9138 156.981 33.9083L156.27 33.8893C156.137 33.8893 155.99 33.8947 155.84 33.8974L155.578 33.9029C155.415 33.9083 155.246 33.9111 155.077 33.9165C154.772 33.9247 154.467 33.9301 154.159 33.9437L152.751 34.05C152.4 34.069 152.065 34.1126 151.708 34.1589C151.591 34.1752 151.471 34.1889 151.354 34.2025C151.21 34.2215 151.055 34.2406 150.902 34.2597C150.581 34.2978 150.278 34.3359 149.981 34.3959L148.56 34.6491C148.277 34.7063 147.98 34.7772 147.683 34.8452C147.517 34.8834 147.353 34.9215 147.187 34.9596C147.111 34.9787 147.024 34.9978 146.939 35.0168C146.798 35.0495 146.656 35.0822 146.514 35.1203L145.833 35.3137C145.676 35.36 145.509 35.4063 145.343 35.4526C145.046 35.5343 144.769 35.6106 144.496 35.7086C142.838 36.2315 141.127 36.9206 139.248 37.8248C137.704 38.5738 136.11 39.508 134.386 40.6764L133.232 41.4989C133 41.6732 132.76 41.8639 132.521 42.0545C132.39 42.158 132.256 42.2615 132.123 42.365C131.807 42.6047 131.513 42.858 131.205 43.1276L131.047 43.2638C130.946 43.351 130.843 43.4408 130.739 43.5307C130.481 43.754 130.236 43.9638 130.01 44.1898C127.215 46.7935 124.848 49.7459 122.961 52.976C122.068 54.4686 121.256 56.1218 120.474 58.0392C119.813 59.6379 119.251 61.3919 118.758 63.4073C118.347 65.036 118.059 66.8036 117.849 68.9716L117.74 70.3878C117.729 70.6738 117.721 70.9788 117.715 71.2839L117.647 73.9366L117.593 74.6774C117.31 78.5367 116.239 82.396 114.496 85.8386C112.761 89.2812 110.294 92.4378 107.366 94.968C104.438 97.5037 100.957 99.4837 97.2995 100.698C95.4611 101.308 93.5519 101.742 91.6236 101.981C90.0085 102.194 88.3662 102.224 86.762 102.224Z" fill="#58BDF6"/>
<path d="M87.2768 110.482H0V109.392H88.0121L89.826 109.343L91.6263 109.207L92.5142 109.098C94.9082 108.798 97.2804 108.262 99.5628 107.505C104.103 105.999 108.423 103.539 112.056 100.394C115.684 97.256 118.742 93.3422 120.896 89.0717C123.062 84.7957 124.391 80.0022 124.742 75.2114L124.808 74.299L124.9 70.7393L124.987 69.6118C125.17 67.7652 125.399 66.368 125.731 65.0716C127.136 59.1696 130.383 53.619 134.877 49.4546C139.351 45.2767 145.117 42.4442 151.109 41.4773C151.37 41.4228 151.629 41.3929 151.88 41.3629C152.002 41.3493 152.128 41.3329 152.25 41.3166C152.362 41.303 152.463 41.2894 152.563 41.2757C152.841 41.2376 153.127 41.1995 153.424 41.1886L154.56 41.1014L155.911 41.066C156.031 41.0633 156.153 41.0579 156.273 41.0579L156.858 41.0742C157.006 41.0796 157.15 41.0824 157.294 41.0851C157.534 41.0905 157.774 41.0933 158.011 41.1096C158.196 41.126 158.37 41.1368 158.547 41.1505C159.116 41.194 159.705 41.2376 160.29 41.3275C160.813 41.3792 161.322 41.4718 161.818 41.5617C162.058 41.6053 162.295 41.6489 162.534 41.687L162.578 41.6952C162.809 41.7524 163.044 41.8068 163.278 41.8586C163.771 41.9703 164.28 42.0874 164.781 42.2426C165.329 42.3842 165.86 42.564 166.377 42.7383C166.568 42.8037 166.759 42.8663 166.949 42.929L166.985 42.9426C167.189 43.0243 167.393 43.106 167.6 43.185C168.096 43.3756 168.605 43.5744 169.101 43.8141C174.649 46.298 179.508 50.5195 182.768 55.6916C183.675 57.1351 184.38 58.4587 184.93 59.7415C185.617 61.3076 186.12 62.7184 186.472 64.0557L186.633 64.614L186.758 65.1642C186.788 65.3085 186.82 65.4447 186.853 65.5809C186.908 65.8097 186.965 66.0466 187.008 66.289L187.207 67.3975C187.256 67.6372 187.283 67.885 187.311 68.1247C187.327 68.2609 187.341 68.397 187.362 68.5305L187.436 69.097C187.452 69.225 187.463 69.3557 187.471 69.4892C187.477 69.5546 187.48 69.6199 187.485 69.6826L187.575 70.8455L187.64 73.5446C187.782 78.3762 188.929 83.2405 190.955 87.6118C192.978 91.9886 195.936 96.014 199.51 99.2469C203.094 102.493 207.394 105.04 211.943 106.614C214.23 107.407 216.611 107.97 219.016 108.289C219.599 108.365 220.206 108.444 220.811 108.48L220.895 108.485C221.464 108.529 222.053 108.575 222.622 108.581L224.308 108.608H312.935V109.697H223.763L222.603 109.67C222.004 109.665 221.396 109.616 220.811 109.569L220.734 109.564C220.1 109.526 219.449 109.441 218.874 109.365C216.396 109.038 213.942 108.458 211.586 107.641C206.899 106.02 202.47 103.395 198.777 100.053C195.095 96.7194 192.05 92.5769 189.963 88.0667C187.874 83.5646 186.692 78.5532 186.548 73.5718L186.483 70.8837L186.398 69.7697C186.393 69.7016 186.387 69.6281 186.382 69.5546C186.377 69.4483 186.368 69.3421 186.355 69.2386L186.281 68.6748C186.262 68.5387 186.243 68.3916 186.227 68.2445C186.199 68.0157 186.175 67.8006 186.134 67.5936L185.935 66.4715C185.897 66.259 185.848 66.0493 185.794 65.826C185.758 65.6816 185.723 65.5346 185.693 65.3902L185.573 64.8619L185.423 64.3362C185.083 63.0452 184.595 61.6834 183.933 60.1664C183.405 58.9326 182.721 57.658 181.847 56.2635C178.699 51.2712 174.009 47.1968 168.641 44.7919C168.169 44.5631 167.701 44.3833 167.205 44.19C167.001 44.111 166.797 44.032 166.593 43.9503C166.405 43.8876 166.217 43.825 166.029 43.7596C165.506 43.5826 165.01 43.4137 164.501 43.283L164.471 43.2748C164.008 43.1278 163.537 43.0216 163.038 42.9099C162.804 42.8581 162.573 42.8037 162.338 42.7465C162.099 42.7083 161.859 42.6648 161.622 42.6212C161.124 42.5313 160.65 42.4442 160.168 42.3979H160.138C159.59 42.3107 159.043 42.2698 158.465 42.2263C158.286 42.2127 158.106 42.199 157.929 42.1854C157.716 42.1718 157.496 42.1664 157.275 42.1636C157.123 42.1636 156.973 42.1582 156.82 42.1527L156.259 42.1364C156.167 42.1364 156.058 42.1418 155.946 42.1446L154.603 42.18L153.489 42.2671C153.223 42.278 152.972 42.3134 152.705 42.3488C152.599 42.3625 152.495 42.3761 152.389 42.3897C152.269 42.406 152.136 42.4224 152.005 42.4387C151.765 42.4659 151.539 42.4932 151.321 42.5395L151.294 42.5449C145.507 43.4764 139.94 46.2109 135.617 50.2445C131.281 54.2672 128.144 59.6217 126.788 65.3249C126.469 66.575 126.248 67.9231 126.071 69.6989L125.987 70.7992L125.894 74.3426L125.826 75.2795C125.464 80.2119 124.097 85.147 121.866 89.551C119.649 93.9468 116.503 97.975 112.767 101.205C109.027 104.443 104.58 106.974 99.9032 108.526C97.5528 109.308 95.1097 109.861 92.6449 110.168L91.7325 110.28L89.8805 110.422L88.0257 110.471H87.274L87.2768 110.482Z" fill="#58BDF6"/>
<path d="M87.2767 118.74H0V117.65H88.0393L90.2482 117.59L92.4488 117.421C92.7239 117.391 93.0126 117.356 93.3013 117.321L93.5382 117.291C96.4688 116.926 99.3721 116.269 102.169 115.338C107.728 113.491 113.017 110.484 117.459 106.636C121.896 102.801 125.633 98.0132 128.269 92.7921C130.922 87.5547 132.548 81.6881 132.978 75.8242L133.057 74.713L133.15 71.1642C133.174 70.8919 133.196 70.6222 133.215 70.3499C133.327 69.2686 133.468 68.1302 133.765 66.9944C134.795 62.6612 137.189 58.5759 140.503 55.501C143.802 52.4233 148.042 50.3398 152.441 49.629C152.637 49.5854 152.825 49.5636 153.007 49.5445C153.1 49.5336 153.193 49.5255 153.285 49.5119C153.38 49.501 153.459 49.4901 153.541 49.4792C153.743 49.4519 153.95 49.422 154.173 49.4165C154.424 49.4002 154.696 49.3784 154.966 49.3539H155.004L155.84 49.3321C155.894 49.3321 155.949 49.3294 156.003 49.3267C156.09 49.3239 156.178 49.3185 156.267 49.3185L156.709 49.3348C156.826 49.3403 156.94 49.3403 157.052 49.343C157.223 49.343 157.392 49.3484 157.561 49.3593C157.738 49.3757 157.907 49.3893 158.073 49.4002C158.454 49.4274 158.847 49.4574 159.239 49.52C159.598 49.5527 159.944 49.6153 160.279 49.678C160.478 49.7134 160.677 49.7515 160.878 49.7815L160.938 49.7924C161.132 49.8441 161.331 49.8877 161.527 49.9313C161.859 50.0048 162.202 50.0838 162.545 50.1927C162.913 50.2853 163.267 50.4052 163.607 50.5196C163.779 50.5768 163.951 50.6367 164.125 50.6912L164.171 50.7075C164.348 50.781 164.525 50.8491 164.702 50.9199C165.037 51.0479 165.383 51.1814 165.721 51.3503C169.801 53.1751 173.385 56.2881 175.793 60.1093C176.487 61.2205 176.994 62.1683 177.386 63.0916C177.912 64.2954 178.271 65.3031 178.516 66.2591L178.636 66.6731L178.723 67.0734C178.745 67.1851 178.772 67.2886 178.797 67.3921C178.838 67.5555 178.879 67.7216 178.908 67.9014C178.952 68.171 179.001 68.4352 179.05 68.6994C179.088 68.8764 179.107 69.0589 179.126 69.2332C179.137 69.334 179.148 69.4348 179.165 69.5355L179.222 69.955C179.235 70.0503 179.241 70.1538 179.246 70.2546C179.246 70.3009 179.252 70.3472 179.254 70.3935L179.322 71.265C179.322 71.5401 179.331 71.8124 179.339 72.0875L179.355 72.6758L179.38 73.7979C179.551 79.7326 180.962 85.7108 183.454 91.0817C185.941 96.4553 189.571 101.396 193.959 105.37C198.36 109.354 203.641 112.483 209.233 114.417C212.046 115.392 214.971 116.084 217.929 116.476C218.64 116.569 219.394 116.664 220.138 116.713C220.827 116.768 221.603 116.828 222.358 116.838L224.305 116.871H312.933V117.961H223.945L222.336 117.928C221.549 117.917 220.756 117.854 220.059 117.8C219.291 117.751 218.515 117.653 217.785 117.557C214.753 117.157 211.757 116.446 208.873 115.447C203.146 113.464 197.734 110.258 193.226 106.176C188.732 102.107 185.009 97.0436 182.463 91.5392C179.908 86.0349 178.465 79.9096 178.288 73.8252L178.247 72.1256C178.238 71.8478 178.23 71.57 178.23 71.295L178.165 70.4861C178.16 70.4316 178.157 70.3744 178.154 70.3145C178.151 70.2464 178.149 70.1783 178.138 70.1102L178.081 69.6962C178.064 69.59 178.051 69.4702 178.037 69.3531C178.021 69.1978 178.004 69.0535 177.977 68.92C177.923 68.634 177.874 68.3589 177.827 68.0839C177.803 67.9422 177.767 67.8006 177.732 67.6563C177.702 67.5392 177.675 67.422 177.65 67.3022L177.568 66.9264L177.457 66.5505C177.22 65.6327 176.877 64.6767 176.376 63.5219C176.005 62.6476 175.523 61.7489 174.861 60.6867C172.568 57.048 169.155 54.0793 165.247 52.3335C164.934 52.1782 164.626 52.0584 164.299 51.9331C164.12 51.8623 163.94 51.7942 163.76 51.7207C163.586 51.6662 163.414 51.6063 163.243 51.5491C162.902 51.432 162.581 51.323 162.251 51.244L162.21 51.2331C161.911 51.1351 161.6 51.0643 161.273 50.9908C161.075 50.9472 160.876 50.9009 160.677 50.8491C160.473 50.8192 160.271 50.781 160.067 50.7429C159.737 50.683 159.424 50.6258 159.108 50.5986L159.067 50.5931C158.716 50.5359 158.354 50.5087 157.975 50.4814C157.801 50.4678 157.629 50.4542 157.455 50.4406C157.319 50.4297 157.169 50.4297 157.019 50.427C156.894 50.427 156.769 50.4242 156.643 50.4188L156.229 50.4052C156.178 50.4052 156.101 50.4079 156.025 50.4134C155.965 50.4134 155.903 50.4188 155.843 50.4188L155.026 50.4379C154.75 50.4624 154.478 50.4842 154.203 50.5032C154.021 50.5087 153.849 50.5332 153.669 50.5577C153.582 50.5686 153.495 50.5822 153.408 50.5931C153.318 50.6067 153.212 50.6176 153.105 50.6312C152.942 50.6476 152.789 50.6666 152.651 50.6993L152.612 50.7075C148.418 51.3829 144.374 53.3684 141.225 56.3044C138.066 59.235 135.786 63.127 134.803 67.2641C134.522 68.3372 134.386 69.4266 134.283 70.4479C134.266 70.7039 134.245 70.9763 134.22 71.2514L134.128 74.7702L134.049 75.906C133.607 81.9142 131.941 87.9251 129.225 93.2878C126.526 98.6369 122.699 103.539 118.157 107.467C113.608 111.405 108.191 114.488 102.499 116.378C99.6336 117.331 96.6594 118.004 93.6581 118.377L93.4238 118.407C93.1297 118.445 92.8328 118.481 92.5387 118.513L90.2945 118.685L88.0421 118.745H87.2659L87.2767 118.74Z" fill="#58BDF6"/>
<path d="M87.2768 127H0V125.911H88.0639L89.3685 125.881L90.673 125.837L91.9695 125.747L93.2713 125.638C93.6935 125.595 94.1293 125.54 94.5623 125.486C98.0349 125.053 101.472 124.274 104.778 123.176C111.361 120.989 117.615 117.432 122.863 112.886C128.182 108.289 132.483 102.782 135.642 96.5151C138.779 90.3217 140.708 83.3793 141.214 76.4397L141.307 75.1296L141.372 72.5341C141.375 72.3734 141.378 72.3679 141.38 72.3516L141.391 72.1582C141.397 72.0547 141.397 71.9403 141.397 71.8287L141.402 71.5944C141.421 71.4283 141.435 71.2649 141.443 71.0987L141.451 71.0279C141.53 70.3334 141.609 69.6171 141.8 68.9226C141.966 68.2689 142.162 67.5608 142.454 66.8827C142.712 66.259 143.009 65.5862 143.41 64.9462C144.115 63.726 145.027 62.5876 146.111 61.5717C146.209 61.4655 146.31 61.381 146.403 61.3075C146.446 61.2721 146.487 61.2394 146.528 61.2013C146.577 61.1577 146.612 61.1278 146.648 61.0951C146.749 61.0052 146.86 60.9044 146.994 60.8145C147.054 60.771 147.124 60.711 147.195 60.6538C147.258 60.6021 147.321 60.5531 147.383 60.5041L147.413 60.4823C147.555 60.3897 147.688 60.2916 147.824 60.1936C148.394 59.8177 149.036 59.4037 149.715 59.0823C150.374 58.78 151.014 58.4941 151.686 58.2871C151.804 58.2408 151.912 58.2135 152.011 58.189C152.068 58.1754 152.128 58.1618 152.182 58.1427L152.449 58.061C152.523 58.0419 152.577 58.0311 152.634 58.0202C152.664 58.0147 152.694 58.0093 152.727 58.0011L152.76 57.9929C152.847 57.9766 152.934 57.9548 153.021 57.9303C153.097 57.9112 153.171 57.8922 153.25 57.8758L153.299 57.8676C153.443 57.8486 153.596 57.8241 153.754 57.7914C153.898 57.7533 154.031 57.7424 154.149 57.7315C154.203 57.726 154.257 57.7206 154.309 57.7124H154.336C154.388 57.7042 154.443 57.6961 154.494 57.6879C154.62 57.6688 154.761 57.647 154.917 57.647C155.058 57.6389 155.222 57.6252 155.385 57.6062H155.429C155.606 57.598 155.783 57.6062 155.96 57.5953C155.998 57.5953 156.028 57.5926 156.06 57.5898C156.126 57.5844 156.188 57.5817 156.254 57.5817H156.281L156.551 57.5953C156.624 57.6007 156.692 57.598 156.763 57.6007C156.878 57.598 156.995 57.6007 157.109 57.6116C157.24 57.6252 157.365 57.6334 157.488 57.6443C157.711 57.6606 157.942 57.677 158.177 57.7178C158.395 57.7342 158.596 57.7723 158.792 57.8077C158.928 57.8322 159.062 57.8595 159.201 57.8758L159.299 57.8949C159.427 57.933 159.563 57.963 159.707 57.9956C159.898 58.0365 160.094 58.0801 160.296 58.1482C160.514 58.1999 160.712 58.268 160.908 58.3361C161.034 58.3797 161.156 58.4205 161.284 58.4587L161.363 58.4886C161.483 58.5458 161.608 58.5921 161.734 58.6384C161.927 58.7119 162.126 58.7882 162.327 58.8944C164.961 60.0683 167.263 62.0728 168.815 64.5377C169.158 65.0905 169.545 65.7469 169.839 66.4578C170.09 67.0324 170.373 67.727 170.558 68.465L170.642 68.751L170.694 69.0043C170.708 69.0806 170.724 69.1432 170.741 69.2031C170.768 69.3039 170.795 69.4156 170.814 69.5409C170.836 69.7015 170.869 69.8595 170.901 70.0175C170.931 70.1373 170.942 70.2626 170.953 70.377C170.958 70.4369 170.964 70.4968 170.975 70.5567L171.016 70.8291C171.026 70.8972 171.029 70.9734 171.032 71.047C171.032 71.0715 171.032 71.096 171.035 71.1205C171.046 71.3057 171.062 71.4746 171.081 71.6407V71.6734L171.084 71.7061C171.084 71.875 171.084 72.0438 171.092 72.2127L171.108 72.741L171.135 74.0674C171.342 81.1106 173.015 88.2 175.97 94.5677C178.917 100.938 183.223 106.797 188.427 111.508C193.646 116.236 199.91 119.946 206.539 122.239C209.892 123.399 213.362 124.222 216.859 124.682C217.643 124.786 218.566 124.9 219.479 124.963C220.329 125.031 221.227 125.099 222.11 125.113L224.319 125.151H312.946V126.24H223.959L222.091 126.202C221.181 126.188 220.263 126.12 219.403 126.049C218.466 125.987 217.521 125.87 216.72 125.763C213.152 125.292 209.609 124.456 206.188 123.271C199.42 120.932 193.027 117.143 187.7 112.317C182.389 107.507 177.993 101.529 174.987 95.028C171.969 88.5296 170.261 81.2903 170.051 74.0974L170.008 72.2617C170 72.0847 169.997 71.9049 170 71.7252C169.981 71.5536 169.964 71.3793 169.956 71.205C169.953 71.175 169.951 71.126 169.951 71.0769C169.951 71.0497 169.951 71.0198 169.945 70.9925L169.907 70.7283C169.893 70.6548 169.885 70.5649 169.877 70.475C169.869 70.3933 169.864 70.3143 169.85 70.2572C169.809 70.0611 169.774 69.8786 169.746 69.6934C169.736 69.6198 169.716 69.549 169.697 69.4782C169.673 69.3883 169.651 69.2985 169.635 69.2059L169.591 68.9934L169.515 68.7428C169.352 68.0783 169.085 67.4301 168.848 66.8854C168.581 66.2372 168.221 65.6271 167.903 65.1151C166.465 62.8273 164.324 60.9671 161.881 59.8804L161.845 59.864C161.701 59.785 161.535 59.7224 161.361 59.657C161.227 59.6053 161.091 59.5535 160.96 59.4963C160.829 59.4582 160.701 59.4146 160.571 59.3711C160.386 59.3084 160.211 59.2485 160.04 59.2104L159.98 59.1913C159.833 59.1395 159.666 59.1041 159.492 59.066C159.348 59.036 159.201 59.0034 159.048 58.9598C158.893 58.9407 158.749 58.9135 158.607 58.8863C158.427 58.8536 158.258 58.8209 158.095 58.81L158.03 58.8018C157.842 58.7664 157.64 58.7528 157.428 58.7392C157.292 58.7283 157.153 58.7201 157.016 58.7038C156.943 58.6983 156.861 58.6983 156.78 58.6983C156.687 58.6983 156.594 58.6983 156.504 58.6929L156.257 58.6793C156.221 58.6793 156.186 58.682 156.15 58.6847C156.107 58.6874 156.06 58.6902 156.017 58.6929C155.851 58.7011 155.674 58.6956 155.497 58.7011C155.32 58.7201 155.137 58.7365 154.957 58.7446C154.859 58.7446 154.77 58.7582 154.674 58.7746C154.609 58.7855 154.546 58.7937 154.481 58.8018C154.407 58.8127 154.334 58.8209 154.26 58.8263C154.173 58.8345 154.094 58.8427 154.034 58.859L154.001 58.8672C153.822 58.9053 153.642 58.9353 153.473 58.9571C153.413 58.9707 153.356 58.9843 153.299 59.0006C153.198 59.0252 153.095 59.0524 152.991 59.0715C152.945 59.0824 152.898 59.0932 152.849 59.1014C152.819 59.1069 152.787 59.1123 152.76 59.1205L152.531 59.1913C152.463 59.2158 152.37 59.2403 152.28 59.2621C152.204 59.2812 152.133 59.2975 152.084 59.3193L152.035 59.3356C151.417 59.5236 150.831 59.785 150.183 60.0846C149.573 60.3733 148.971 60.7628 148.454 61.1032C148.331 61.1931 148.189 61.2939 148.04 61.3947C147.988 61.4328 147.939 61.4736 147.89 61.5145C147.805 61.5826 147.718 61.6534 147.631 61.7188C147.544 61.7787 147.465 61.8495 147.383 61.923C147.342 61.9612 147.299 61.9966 147.258 62.0347C147.217 62.0728 147.16 62.1191 147.103 62.1654C147.029 62.2253 146.961 62.2825 146.912 62.337L146.879 62.3724C145.866 63.3175 145.014 64.377 144.352 65.5263C143.984 66.1146 143.709 66.7383 143.467 67.3266C143.2 67.9394 143.02 68.5985 142.862 69.2195C142.69 69.8459 142.62 70.4887 142.541 71.1695V71.1859C142.53 71.3602 142.513 71.5291 142.497 71.7034V71.8532C142.497 71.9812 142.497 72.1092 142.489 72.2372L142.475 72.485C142.475 72.485 142.475 72.5123 142.475 72.5776L142.41 75.2059L142.317 76.5404C141.8 83.6244 139.833 90.7084 136.631 97.0298C133.406 103.422 129.018 109.043 123.59 113.733C118.236 118.372 111.854 122.002 105.135 124.236C101.763 125.358 98.2555 126.15 94.7121 126.594C94.2736 126.649 93.8297 126.703 93.3885 126.749L92.0675 126.858L90.7439 126.948L89.4148 126.992L88.0965 127.019H87.2958L87.2768 127Z" fill="#58BDF6"/>
<path d="M87.895 77.4446H0V76.3552H87.8569C87.9413 76.3443 88.0312 76.3443 88.1129 76.347H88.1183C88.1537 76.3416 88.1892 76.3389 88.2218 76.3362C88.2572 76.3362 88.2926 76.3307 88.3308 76.3307C88.3635 76.3253 88.3934 76.3198 88.4234 76.3171C88.6794 76.2817 88.9164 76.2299 89.1397 76.1564C89.6054 76.0011 90.0575 75.7424 90.447 75.4047C90.8392 75.067 91.1796 74.6339 91.4084 74.1845C91.6399 73.7215 91.7598 73.2803 91.8006 72.7574C91.8006 72.7274 91.8061 72.6947 91.8115 72.6648C91.8115 72.6266 91.8115 72.5885 91.8115 72.5531C91.8115 72.5041 91.8142 72.4578 91.8197 72.4115L91.8469 71.0633C91.8633 70.396 91.8796 69.7097 91.9095 69.0261C91.9613 68.239 92.0185 67.46 92.0811 66.6838C92.4025 63.2603 92.9009 60.2181 93.6063 57.3719C94.3826 54.1609 95.3521 51.1322 96.4824 48.3705C97.7216 45.312 99.1216 42.4631 100.641 39.903C103.803 34.4967 107.753 29.5697 112.38 25.2692C112.829 24.8335 113.311 24.414 113.777 24.0109L114.205 23.6405C114.766 23.1557 115.343 22.6546 115.95 22.1862C116.552 21.7095 117.173 21.2193 117.797 20.7508C118.437 20.2878 119.074 19.8357 119.712 19.3836C122.446 17.518 125.181 15.9165 127.85 14.6146C130.878 13.1466 133.744 11.9918 136.609 11.0822C137.121 10.9079 137.652 10.7581 138.167 10.611C138.401 10.5456 138.632 10.4803 138.867 10.4094L140.005 10.0935C140.294 10.0173 140.58 9.94916 140.866 9.8838L141.465 9.74489C142.119 9.59237 142.794 9.43441 143.467 9.2955C144.243 9.14843 145.014 9.01225 145.787 8.8788C146.373 8.76713 146.977 8.69087 147.56 8.61734C147.748 8.59282 147.933 8.56831 148.121 8.5438L148.44 8.50295C149.104 8.42124 149.794 8.33408 150.477 8.28778C151.207 8.22514 151.972 8.16795 152.803 8.11348C153.495 8.08079 154.184 8.06445 154.848 8.04811L155.388 8.03449C155.701 8.02632 156.011 8.02087 156.322 8.02087L158.073 8.059C158.651 8.07262 159.244 8.08624 159.838 8.12437C161.287 8.22242 162.924 8.33681 164.523 8.56286C165.925 8.72355 167.344 8.98774 168.717 9.24103L169.164 9.32274L169.722 9.44802C171.054 9.74489 172.432 10.0554 173.775 10.4557C175.3 10.867 176.806 11.3872 178.26 11.8938L178.552 12.0055C179.905 12.5229 181.305 13.0595 182.648 13.6886C184.1 14.3205 185.51 15.0559 186.872 15.7667L187.027 15.8539C188.327 16.5838 189.669 17.3409 190.941 18.1798C192.219 18.9751 193.458 19.8711 194.659 20.7372L194.994 20.9905C196.154 21.8893 197.353 22.8207 198.472 23.8176C199.643 24.809 200.76 25.8984 201.844 26.9551L201.904 27.0123C202.459 27.5843 202.996 28.1453 203.532 28.7145C203.914 29.1122 204.279 29.5343 204.633 29.9429C204.785 30.1199 204.938 30.2969 205.093 30.4712C207.209 32.9388 209.094 35.4853 210.695 38.0428C212.455 40.8399 213.95 43.6397 215.14 46.3605C216.472 49.381 217.54 52.3769 218.321 55.2584L218.632 56.386L219.035 58.0991C219.168 58.6711 219.307 59.2648 219.419 59.8558C219.56 60.6293 219.699 61.4001 219.833 62.1709C219.934 62.7374 220.007 63.312 220.078 63.8676C220.105 64.0801 220.132 64.2925 220.16 64.505L220.301 65.6707C220.331 65.9294 220.353 66.1854 220.372 66.4441C220.383 66.5803 220.394 66.7165 220.405 66.85C220.465 67.6207 220.525 68.4078 220.571 69.1895C220.598 69.9793 220.62 70.7583 220.636 71.5345L220.653 72.3897C220.653 72.3897 220.653 72.4115 220.653 72.4197C220.658 72.4687 220.661 72.515 220.661 72.5667C220.677 72.9998 220.759 73.3593 220.936 73.7488C221.11 74.1301 221.377 74.495 221.69 74.7755C222.009 75.0561 222.379 75.2794 222.766 75.4129C222.949 75.4755 223.139 75.5191 223.352 75.549C223.382 75.5518 223.409 75.5572 223.439 75.5627H223.452H223.458H223.493C223.531 75.5654 223.57 75.5708 223.608 75.5763C223.61 75.5763 223.613 75.5763 223.616 75.5763H223.668C223.725 75.5763 223.777 75.5763 223.831 75.5844H224.313H312.941V76.6739H223.954L223.698 76.663C223.6 76.6712 223.518 76.663 223.466 76.6548C223.365 76.6548 223.289 76.6412 223.237 76.6303L223.21 76.6248C222.924 76.5867 222.665 76.5268 222.412 76.4396C221.892 76.2599 221.393 75.963 220.969 75.5872C220.544 75.2059 220.184 74.7129 219.95 74.1981C219.767 73.7978 219.659 73.4138 219.607 72.9862H219.566L219.55 71.5536C219.533 70.7828 219.511 70.0093 219.484 69.2385C219.438 68.4787 219.378 67.697 219.318 66.9371C219.307 66.8037 219.296 66.6648 219.283 66.5231C219.264 66.2807 219.245 66.0383 219.215 65.7959L219.073 64.6357C219.046 64.426 219.018 64.2108 218.991 63.9957C218.923 63.4537 218.852 62.8926 218.754 62.3506C218.624 61.5798 218.485 60.8145 218.343 60.0492C218.237 59.4827 218.101 58.9026 217.97 58.3388L217.572 56.6502L217.267 55.539C216.502 52.7065 215.451 49.765 214.141 46.7936C212.972 44.1218 211.504 41.371 209.772 38.6174C208.198 36.1036 206.348 33.6006 204.27 31.1821C204.118 31.0105 203.963 30.8308 203.807 30.651C203.464 30.2534 203.107 29.8421 202.742 29.4608C202.206 28.8916 201.672 28.3332 201.133 27.7776L201.084 27.7286C200.016 26.6855 198.91 25.6097 197.758 24.6346C196.655 23.6514 195.473 22.7336 194.327 21.8457L194.022 21.6169C192.837 20.7617 191.611 19.8766 190.353 19.0922C189.103 18.2669 187.776 17.5207 186.494 16.7989L186.355 16.72C185.023 16.0254 183.634 15.301 182.201 14.6773C180.88 14.059 179.5 13.5307 178.165 13.0186L177.887 12.9124C176.465 12.4194 174.978 11.9047 173.478 11.4989C172.157 11.104 170.798 10.7989 169.485 10.5048L168.946 10.3849L168.521 10.3059C167.167 10.0554 165.767 9.79392 164.389 9.63595C162.812 9.41262 161.197 9.30367 159.77 9.20563C159.201 9.17022 158.615 9.1566 158.049 9.14298L156.311 9.10485C156.02 9.10485 155.717 9.11302 155.412 9.11847L154.876 9.13209C154.217 9.14843 153.533 9.16477 152.863 9.19473C152.049 9.2492 151.292 9.3064 150.559 9.36904C149.897 9.41262 149.224 9.49705 148.573 9.57875L148.257 9.61689C148.075 9.6414 147.884 9.66591 147.696 9.69042C147.13 9.76396 146.542 9.83749 145.981 9.94371C145.204 10.0772 144.439 10.2133 143.676 10.3577C143.028 10.4912 142.358 10.6464 141.71 10.7989L141.114 10.9378C140.838 11.0005 140.563 11.0658 140.291 11.1394L139.166 11.4498C138.94 11.5179 138.703 11.5833 138.466 11.6514C137.965 11.793 137.445 11.9401 136.949 12.109C134.122 13.005 131.306 14.1407 128.326 15.5869C125.706 16.8643 123.018 18.4412 120.333 20.2715C119.704 20.7154 119.072 21.1648 118.443 21.6197C117.838 22.0745 117.222 22.562 116.629 23.0305C116.035 23.488 115.466 23.981 114.918 24.4549L114.493 24.8253C114.039 25.2202 113.567 25.6287 113.134 26.0509C108.578 30.2888 104.694 35.1313 101.584 40.4477C100.091 42.9643 98.7157 45.7641 97.4956 48.7736C96.3844 51.4863 95.4338 54.4632 94.6685 57.6225C93.9767 60.4169 93.4865 63.4074 93.1706 66.771C93.1079 67.5336 93.0507 68.3071 92.999 69.0806C92.969 69.7397 92.9527 70.4233 92.9363 71.0824L92.9009 72.5204C92.9009 72.5204 92.9009 72.5477 92.9009 72.564V72.6021C92.9009 72.6021 92.9009 72.6294 92.9009 72.643V72.7002L92.8982 72.7574C92.8928 72.7873 92.89 72.8119 92.8873 72.8364C92.8356 73.4982 92.6749 74.081 92.3835 74.6693C92.0893 75.2522 91.6672 75.7914 91.1633 76.2245C90.6676 76.6548 90.0875 76.9871 89.4856 77.1859C89.1914 77.284 88.8891 77.352 88.5596 77.3956H88.5296C88.5105 77.4038 88.4833 77.4092 88.4561 77.4147L88.3989 77.4229H88.3417C88.3417 77.4229 88.3199 77.4229 88.309 77.4229C88.2845 77.4229 88.2572 77.4283 88.2327 77.4337L88.1537 77.4392C88.1292 77.4392 88.102 77.4392 88.0748 77.4392H88.0339C88.0339 77.4392 88.0067 77.4392 87.993 77.4392L87.9005 77.4474L87.895 77.4446Z" fill="#58BDF6"/>
<path d="M43.1902 52.2925C57.6304 52.2925 69.3365 40.5864 69.3365 26.1463C69.3365 11.7061 57.6304 0 43.1902 0C28.75 0 17.0439 11.7061 17.0439 26.1463C17.0439 40.5864 28.75 52.2925 43.1902 52.2925Z" fill="#58BDF6"/>
<path d="M269.245 52.2925C283.685 52.2925 295.391 40.5864 295.391 26.1463C295.391 11.7061 283.685 0 269.245 0C254.805 0 243.099 11.7061 243.099 26.1463C243.099 40.5864 254.805 52.2925 269.245 52.2925Z" fill="#58BDF6"/>
</g>
<defs>
<clipPath id="clip0_639_820">
<rect width="312.938" height="127" fill="white"/>
</clipPath>
</defs>
</svg>
