<svg width="204" height="141" viewBox="0 0 204 141" fill="none" xmlns="http://www.w3.org/2000/svg">
<g opacity="0.6" clip-path="url(#clip0_651_851)">
<path d="M70.2631 140.53C31.519 140.53 0 109.007 0 70.2631C0 31.519 31.519 0 70.2631 0C82.2457 0 94.0737 3.0699 104.464 8.87301L103.691 10.2555C93.535 4.58307 81.9763 1.5805 70.2631 1.5805C32.3944 1.58447 1.58447 32.3944 1.58447 70.2631C1.58447 108.132 32.3944 138.942 70.2631 138.942C81.9763 138.942 93.535 135.943 103.691 130.267L104.464 131.649C94.0697 137.456 82.2457 140.522 70.2631 140.522V140.53Z" fill="#58BDF6"/>
<path d="M75.1159 138.419C74.2048 138.419 73.2977 138.399 72.3867 138.364C54.9456 137.674 38.6336 130.283 26.4569 117.548C14.2447 104.773 7.51465 87.9815 7.51465 70.2671C7.51465 52.5528 14.2407 35.7614 26.4569 22.9867C38.6336 10.2476 54.9417 2.85602 72.3867 2.16678C83.4938 1.71521 94.5731 4.02853 104.429 8.85323L103.731 10.2753C94.1097 5.56546 83.2957 3.31156 72.45 3.74729C55.417 4.42068 39.4931 11.6379 27.6017 24.076C15.6707 36.5537 9.09911 52.9568 9.09911 70.2592C9.09911 87.5616 15.6707 103.965 27.6017 116.442C39.4931 128.88 55.417 136.098 72.45 136.771C83.2957 137.207 94.1136 134.953 103.735 130.243L104.432 131.665C95.3812 136.098 85.3 138.407 75.1159 138.407V138.419Z" fill="#58BDF6"/>
<path d="M80.1707 136.442C78.2812 136.442 76.3877 136.359 74.4983 136.193C58.3843 134.81 43.4071 127.336 32.3277 115.139C21.1731 102.86 15.0293 86.9238 15.0293 70.2632C15.0293 53.6025 21.1731 37.6667 32.3277 25.3871C43.4071 13.1907 58.3882 5.71597 74.5022 4.33353C84.73 3.43434 95.0646 4.98712 104.381 8.82945L103.775 10.2951C94.6883 6.54782 84.6111 5.03069 74.6369 5.91007C58.919 7.25687 44.3102 14.5533 33.5002 26.4527C22.611 38.4392 16.6138 53.9947 16.6138 70.2632C16.6138 86.5317 22.611 102.087 33.5002 114.074C44.3102 125.973 58.919 133.265 74.6369 134.612C84.619 135.492 94.6923 133.975 103.779 130.231L104.385 131.697C96.7877 134.83 88.5129 136.442 80.1746 136.442H80.1707Z" fill="#58BDF6"/>
<path d="M85.6523 134.676C82.6576 134.676 79.6432 134.458 76.6089 134.018C45.7871 129.685 22.543 102.273 22.543 70.2631C22.543 38.253 45.7871 10.8456 76.6129 6.50817C86.0999 5.13761 95.4244 5.914 104.325 8.81357L103.834 10.3188C95.163 7.4945 86.0801 6.74188 76.8347 8.07679C46.7853 12.3034 24.1274 39.0373 24.1274 70.2631C24.1274 101.489 46.7853 128.223 76.8307 132.449C86.0801 133.784 95.163 133.032 103.834 130.207L104.325 131.713C98.2686 133.685 92.0178 134.672 85.6523 134.672V134.676Z" fill="#58BDF6"/>
<path d="M91.3646 133.178C87.1777 133.178 82.9511 132.735 78.7087 131.847C50.5171 125.941 30.0537 100.043 30.0537 70.2671C30.0537 40.491 50.5211 14.589 78.7127 8.68286C87.3678 6.86864 95.9596 6.90826 104.258 8.79377L103.906 10.3386C95.8328 8.50461 87.4668 8.46895 79.0375 10.2356C51.5747 15.9872 31.6421 41.2318 31.6421 70.2631C31.6421 99.2945 51.5747 124.539 79.0375 130.291C87.4668 132.057 95.8328 132.022 103.906 130.188L104.258 131.732C100.028 132.695 95.7219 133.174 91.3686 133.174L91.3646 133.178Z" fill="#58BDF6"/>
<path d="M97.6701 132.121C92.065 132.121 86.4164 131.301 80.8034 129.661C55.349 122.238 37.5713 97.8091 37.5713 70.2632C37.5713 42.7172 55.349 18.2887 80.8034 10.8655C88.5911 8.59178 96.45 7.89461 104.17 8.77795L103.988 10.3505C96.4817 9.487 88.8327 10.1723 81.2471 12.3826C56.466 19.6117 39.1558 43.4104 39.1558 70.2592C39.1558 97.108 56.466 120.907 81.2471 128.136C88.8327 130.346 96.4817 131.031 103.988 130.168L104.17 131.74C102.015 131.986 99.8448 132.113 97.6701 132.113V132.121Z" fill="#58BDF6"/>
<path d="M104.068 131.756C96.9416 131.653 89.8154 130.211 82.8873 127.474C60.277 118.542 45.0859 95.5512 45.0859 70.2671C45.0859 44.983 60.277 21.9924 82.8873 13.06C89.8154 10.3228 96.9416 8.88094 104.068 8.77795L104.091 10.3624C97.1555 10.4654 90.2195 11.8677 83.4696 14.5335C61.4614 23.2283 46.6704 45.6287 46.6704 70.2671C46.6704 94.9056 61.4574 117.306 83.4696 126.001C90.2195 128.667 97.1555 130.073 104.091 130.172L104.068 131.756Z" fill="#58BDF6"/>
<path d="M103.953 131.744C97.429 130.663 91.0397 128.484 84.9632 125.268C75.4802 120.249 67.4311 112.564 61.6874 103.038C55.7457 93.1864 52.6045 81.8535 52.6045 70.2631C52.6045 58.6727 55.7457 47.3359 61.6874 37.4884C67.4311 27.9658 75.4802 20.2772 84.9632 15.2584C91.0397 12.0419 97.429 9.86326 103.953 8.78186L104.211 10.3465C97.8529 11.4002 91.6259 13.5234 85.704 16.6606C76.4745 21.5447 68.6393 29.0313 63.0422 38.3084C57.2509 47.9102 54.189 58.9619 54.189 70.2671C54.189 81.5722 57.2509 92.6239 63.0422 102.226C68.6393 111.503 76.4745 118.989 85.704 123.874C91.6299 127.007 97.8568 129.134 104.211 130.188L103.953 131.752V131.744Z" fill="#58BDF6"/>
<path d="M103.822 131.713C97.8681 129.665 92.2155 126.749 87.0225 123.05C70.1756 111.142 60.1143 91.4079 60.1143 70.2671C60.1143 49.1264 70.1756 29.3919 87.0225 17.4846C92.2116 13.7849 97.8642 10.8695 103.818 8.82153L104.333 10.3189C98.5217 12.3192 93.0078 15.1634 87.9375 18.7759C71.5066 30.3901 61.6948 49.6374 61.6948 70.2671C61.6948 90.8969 71.5026 110.144 87.9335 121.758C93.0038 125.371 98.5217 128.215 104.333 130.215L103.818 131.713H103.822Z" fill="#58BDF6"/>
<path d="M103.695 131.653C81.4494 119.235 67.6328 95.7097 67.6328 70.2632C67.6328 44.8167 81.4494 21.2913 103.695 8.87305L104.468 10.2555C82.7249 22.3965 69.2173 45.3871 69.2173 70.2632C69.2173 95.1393 82.7249 118.13 104.468 130.271L103.695 131.653Z" fill="#58BDF6"/>
<path d="M133.737 140.53C121.754 140.53 109.926 137.46 99.5361 131.657L100.309 130.275C110.465 135.947 122.024 138.95 133.737 138.95C171.606 138.95 202.416 108.14 202.416 70.2711C202.416 32.4023 171.606 1.58447 133.737 1.58447C122.024 1.58447 110.465 4.58307 100.309 10.2594L99.5361 8.87697C109.926 3.0699 121.754 0 133.737 0C172.481 0 204 31.519 204 70.2631C204 109.007 172.481 140.526 133.737 140.526V140.53Z" fill="#58BDF6"/>
<path d="M128.884 138.419C118.7 138.419 108.619 136.106 99.5674 131.677L100.265 130.255C109.886 134.965 120.704 137.223 131.546 136.783C148.579 136.11 164.503 128.892 176.394 116.454C188.325 103.977 194.897 87.5734 194.897 70.271C194.897 52.9687 188.325 36.5655 176.394 24.0878C164.503 11.6497 148.579 4.43249 131.546 3.7591C120.7 3.31941 109.882 5.57727 100.261 10.2871L99.5635 8.86504C109.423 4.04034 120.502 1.72306 131.609 2.17859C149.05 2.86783 165.362 10.2594 177.539 22.9945C189.751 35.7693 196.481 52.5607 196.481 70.275C196.481 87.9893 189.755 104.781 177.539 117.555C165.362 130.291 149.05 137.682 131.609 138.371C130.698 138.407 129.791 138.427 128.88 138.427L128.884 138.419Z" fill="#58BDF6"/>
<path d="M123.83 136.442C115.488 136.442 107.217 134.83 99.6192 131.697L100.225 130.231C109.312 133.978 119.385 135.492 129.364 134.616C145.081 133.269 159.69 125.973 170.5 114.074C181.39 102.087 187.387 86.5317 187.387 70.2632C187.387 53.9947 181.39 38.4392 170.5 26.4527C159.69 14.5533 145.081 7.26082 129.364 5.91403C119.381 5.03465 109.308 6.55177 100.221 10.2951L99.6152 8.82944C108.936 4.98711 119.271 3.43038 129.498 4.33352C145.612 5.71597 160.589 13.1907 171.669 25.3871C182.823 37.6667 188.967 53.6025 188.967 70.2632C188.967 86.9238 182.823 102.86 171.669 115.139C160.589 127.336 145.608 134.81 129.494 136.193C127.605 136.359 125.715 136.442 123.826 136.442H123.83Z" fill="#58BDF6"/>
<path d="M118.348 134.68C111.982 134.68 105.731 133.689 99.6748 131.717L100.166 130.211C108.837 133.032 117.92 133.788 127.165 132.453C157.215 128.227 179.873 101.493 179.873 70.267C179.873 39.0412 157.215 12.3033 127.169 8.07674C117.92 6.74183 108.837 7.49841 100.166 10.3188L99.6748 8.81352C108.58 5.91395 117.904 5.14152 127.391 6.50812C158.213 10.8416 181.457 38.2529 181.457 70.2631C181.457 102.273 158.213 129.685 127.391 134.018C124.357 134.458 121.342 134.676 118.352 134.676L118.348 134.68Z" fill="#58BDF6"/>
<path d="M112.636 133.178C108.282 133.178 103.977 132.699 99.7461 131.736L100.099 130.192C108.171 132.026 116.537 132.061 124.967 130.295C152.43 124.543 172.362 99.2985 172.362 70.2671C172.362 41.2357 152.43 15.9912 124.967 10.2396C116.537 8.47293 108.171 8.50858 100.099 10.3426L99.7461 8.79775C108.041 6.91223 116.636 6.87658 125.292 8.68684C153.483 14.5929 173.947 40.491 173.947 70.2671C173.947 100.043 153.483 125.941 125.292 131.847C121.049 132.735 116.823 133.178 112.636 133.178Z" fill="#58BDF6"/>
<path d="M106.329 132.121C104.155 132.121 101.988 131.998 99.8291 131.748L100.011 130.176C107.518 131.039 115.167 130.354 122.752 128.144C147.533 120.915 164.844 97.1159 164.844 70.2671C164.844 43.4184 147.533 19.6197 122.752 12.3906C115.167 10.1802 107.514 9.49495 100.011 10.3585L99.8291 8.7859C107.545 7.8986 115.408 8.59973 123.196 10.8734C148.65 18.2967 166.428 42.7252 166.428 70.2711C166.428 97.817 148.65 122.246 123.196 129.669C117.583 131.305 111.934 132.129 106.329 132.129V132.121Z" fill="#58BDF6"/>
<path d="M99.932 131.756L99.9082 130.172C106.844 130.069 113.78 128.667 120.53 126.001C142.538 117.306 157.329 94.9056 157.329 70.2671C157.329 45.6287 142.542 23.2283 120.53 14.5335C113.78 11.8677 106.844 10.4614 99.9082 10.3624L99.932 8.77795C107.058 8.88094 114.184 10.3228 121.112 13.06C143.723 21.9924 158.914 44.983 158.914 70.2671C158.914 95.5512 143.723 118.542 121.112 127.474C114.184 130.211 107.058 131.653 99.932 131.756Z" fill="#58BDF6"/>
<path d="M100.048 131.744L99.79 130.18C106.148 129.126 112.375 127.003 118.297 123.866C127.526 118.981 135.361 111.495 140.958 102.218C146.75 92.6159 149.812 81.5643 149.812 70.2591C149.812 58.954 146.75 47.9023 140.958 38.3004C135.361 29.0234 127.526 21.5368 118.297 16.6527C112.371 13.5194 106.144 11.3923 99.79 10.3386L100.048 8.77393C106.572 9.85532 112.961 12.034 119.037 15.2504C128.52 20.2692 136.569 27.9539 142.313 37.4805C148.255 47.3319 151.396 58.6648 151.396 70.2552C151.396 81.8455 148.255 93.1824 142.313 103.03C136.569 112.552 128.52 120.241 119.037 125.26C112.961 128.476 106.572 130.655 100.048 131.736V131.744Z" fill="#58BDF6"/>
<path d="M100.178 131.713L99.6631 130.215C105.474 128.215 110.988 125.371 116.058 121.758C132.489 110.144 142.301 90.8969 142.301 70.2671C142.301 49.6374 132.493 30.3901 116.062 18.7759C110.992 15.1634 105.474 12.3192 99.6631 10.3189L100.178 8.82153C106.132 10.8695 111.784 13.7849 116.977 17.4846C133.824 29.3919 143.886 49.1264 143.886 70.2671C143.886 91.4079 133.824 111.142 116.977 123.05C111.788 126.749 106.136 129.665 100.182 131.713H100.178Z" fill="#58BDF6"/>
<path d="M100.305 131.653L99.5322 130.271C121.275 118.13 134.783 95.1393 134.783 70.2632C134.783 45.3871 121.275 22.3965 99.5322 10.2555L100.305 8.87305C122.551 21.2913 136.367 44.8167 136.367 70.2632C136.367 95.7097 122.551 119.235 100.305 131.653Z" fill="#58BDF6"/>
<path d="M101.802 93.0398C114.491 93.0398 124.777 82.7537 124.777 70.0651C124.777 57.3765 114.491 47.0903 101.802 47.0903C89.1133 47.0903 78.8271 57.3765 78.8271 70.0651C78.8271 82.7537 89.1133 93.0398 101.802 93.0398Z" fill="#58BDF6"/>
</g>
<defs>
<clipPath id="clip0_651_851">
<rect width="204" height="140.53" fill="white"/>
</clipPath>
</defs>
</svg>
