<svg width="186" height="186" viewBox="0 0 186 186" fill="none" xmlns="http://www.w3.org/2000/svg">
<g opacity="0.6" clip-path="url(#clip0_639_817)">
<path d="M93.0011 99.3201C94.713 99.3201 96.2588 98.6808 97.4723 97.4673C98.6822 96.2574 99.3214 94.7116 99.3214 92.9997C99.3214 91.2878 98.6822 89.742 97.4723 88.5321C96.2624 87.3222 94.7166 86.6793 93.0011 86.6793C91.2855 86.6793 89.7433 87.3186 88.5298 88.5321C87.3199 89.742 86.6807 91.2878 86.6807 92.9997C86.6807 94.7116 87.3199 96.2574 88.5334 97.4709C89.7433 98.6808 91.2891 99.3201 93.0011 99.3201ZM89.2991 89.2978C90.3031 88.2937 91.5853 87.7628 93.0011 87.7628C94.4168 87.7628 95.7026 88.2937 96.703 89.2978C97.707 90.3018 98.2379 91.5803 98.2379 92.9997C98.2379 94.4191 97.707 95.6976 96.7066 96.7017C95.7026 97.7057 94.4204 98.2366 93.0011 98.2366C91.5817 98.2366 90.3031 97.7057 89.2991 96.7053C88.2951 95.7012 87.7642 94.4191 87.7642 92.9997C87.7642 91.5803 88.2951 90.3018 89.2991 89.2978Z" fill="#58BDF6"/>
<path d="M158.761 27.2391C141.194 9.672 117.841 0 93 0C68.1591 0 44.8061 9.672 27.2391 27.2391C9.672 44.8061 0 68.1591 0 93C0 110.498 4.80711 127.257 13.7857 141.775C5.72447 154.589 0.920971 169.657 0.541748 185.819H87.2539C89.1608 185.935 91.075 186 93 186C117.841 186 141.194 176.328 158.761 158.761C176.328 141.194 186 117.841 186 93C186 68.1591 176.328 44.8061 158.761 27.2391ZM87.2358 101.18C84.5885 101.18 81.97 101.307 79.3805 101.538C77.7841 99.0026 76.9282 96.0699 76.9282 93C76.9282 88.7057 78.6003 84.6715 81.6341 81.6341C84.6715 78.5967 88.7057 76.9282 93 76.9282C97.2943 76.9282 101.328 78.6003 104.366 81.6341C107.4 84.6679 109.072 88.7057 109.072 93C109.072 97.2943 107.4 101.328 104.366 104.362C101.328 107.4 97.2943 109.072 93 109.072C91.1255 109.072 89.2981 108.754 87.5825 108.14V101.18H87.2358ZM87.5825 109.281C89.3089 109.852 91.1292 110.155 93 110.155C97.5832 110.155 101.892 108.371 105.132 105.128C108.371 101.888 110.155 97.5796 110.155 93C110.155 88.4204 108.371 84.1081 105.132 80.8685C101.892 77.6288 97.5832 75.8447 93 75.8447C88.4168 75.8447 84.1081 77.6288 80.8685 80.8685C77.6288 84.1081 75.8447 88.4168 75.8447 93C75.8447 96.088 76.6573 99.0531 78.1814 101.65C74.7684 102.004 71.4096 102.556 68.1266 103.293C66.7939 100.072 66.0932 96.59 66.0932 93C66.0932 85.8128 68.8922 79.0554 73.9738 73.9738C79.0554 68.8922 85.8128 66.0932 93 66.0932C100.187 66.0932 106.945 68.8922 112.026 73.9738C117.108 79.0554 119.907 85.8128 119.907 93C119.907 100.187 117.108 106.945 112.026 112.026C106.945 117.108 100.187 119.907 93 119.907C91.1581 119.907 89.345 119.719 87.5825 119.361V109.281ZM87.5825 120.467C89.3486 120.81 91.1617 120.99 93 120.99C100.476 120.99 107.504 118.079 112.792 112.792C118.079 107.504 120.99 100.476 120.99 93C120.99 85.5239 118.079 78.4956 112.792 73.2082C107.504 67.9207 100.476 65.0097 93 65.0097C85.5239 65.0097 78.4956 67.9207 73.2082 73.2082C67.9207 78.4956 65.0097 85.5239 65.0097 93C65.0097 96.673 65.7176 100.241 67.0611 103.546C63.8612 104.308 60.7299 105.243 57.6781 106.349C56.0889 102.141 55.2583 97.6337 55.2583 93C55.2583 82.9199 59.1841 73.4393 66.3135 66.3135C73.4429 59.1841 82.9199 55.2583 93 55.2583C103.08 55.2583 112.561 59.1841 119.686 66.3135C126.816 73.4429 130.742 82.9199 130.742 93C130.742 103.08 126.816 112.557 119.686 119.686C112.557 126.816 103.08 130.742 93 130.742C91.1689 130.742 89.3631 130.612 87.5825 130.355V120.467ZM87.5825 131.45C89.3631 131.695 91.1725 131.825 93 131.825C103.369 131.825 113.12 127.787 120.456 120.452C127.787 113.121 131.825 103.369 131.825 93C131.825 82.631 127.787 72.8795 120.452 65.5478C113.121 58.2162 103.369 54.1748 93 54.1748C82.631 54.1748 72.8795 58.2126 65.5478 65.5478C58.2162 72.8795 54.1748 82.631 54.1748 93C54.1748 97.7638 55.0307 102.398 56.6632 106.728C53.6005 107.884 50.6173 109.205 47.7316 110.683C45.561 105.121 44.4233 99.147 44.4233 93C44.4233 80.0233 49.476 67.8268 58.6496 58.6496C67.8232 49.476 80.0233 44.4233 93 44.4233C105.977 44.4233 118.173 49.476 127.35 58.6496C136.524 67.8232 141.577 80.0233 141.577 93C141.577 105.977 136.524 118.173 127.35 127.347C118.177 136.524 105.977 141.577 93 141.577C91.1761 141.577 89.3703 141.472 87.5825 141.277V131.45ZM87.5825 142.368C89.3703 142.559 91.1761 142.66 93 142.66C106.266 142.66 118.737 137.496 128.116 128.112C137.496 118.733 142.66 106.262 142.66 93C142.66 79.738 137.496 67.2634 128.116 57.8839C118.737 48.5045 106.266 43.3398 93 43.3398C79.7344 43.3398 67.2634 48.5045 57.8839 57.8839C48.5045 67.2634 43.3398 79.7344 43.3398 93C43.3398 99.324 44.5172 105.471 46.7636 111.185C43.8454 112.727 41.0247 114.435 38.3124 116.292C35.2172 109.025 33.5883 101.137 33.5883 93C33.5883 77.1304 39.7679 62.2107 50.9893 50.9893C62.2107 39.7679 77.1304 33.5883 93 33.5883C108.87 33.5883 123.789 39.7679 135.011 50.9893C146.232 62.2107 152.412 77.1304 152.412 93C152.412 108.87 146.232 123.789 135.011 135.011C123.789 146.232 108.87 152.412 93 152.412C91.1797 152.412 89.3739 152.325 87.5825 152.166V142.368ZM87.5825 153.253C89.3739 153.412 91.1797 153.495 93 153.495C109.159 153.495 124.349 147.204 135.776 135.776C147.204 124.353 153.495 109.159 153.495 93C153.495 76.8415 147.204 61.6509 135.776 50.2236C124.349 38.7963 109.159 32.5049 93 32.5049C76.8415 32.5049 61.6509 38.7963 50.2236 50.2236C38.7963 61.6509 32.5049 76.8415 32.5049 93C32.5049 101.361 34.1951 109.462 37.4023 116.92C34.6538 118.852 32.0209 120.94 29.5216 123.172C25.0901 113.865 22.7498 103.615 22.7498 93.0036C22.7498 74.2411 30.0562 56.5982 43.3254 43.3326C56.5946 30.0634 74.2339 22.757 92.9964 22.757C111.759 22.757 129.402 30.0634 142.667 43.3326C155.937 56.6018 163.243 74.2411 163.243 93.0036C163.243 111.766 155.937 129.409 142.667 142.675C129.398 155.944 111.759 163.25 92.9964 163.25C91.1797 163.25 89.3739 163.178 87.5789 163.044V153.257L87.5825 153.253ZM87.5825 164.128C89.3775 164.261 91.1833 164.33 93 164.33C112.051 164.33 129.965 156.912 143.437 143.437C156.908 129.965 164.33 112.051 164.33 93C164.33 73.9485 156.912 56.0348 143.437 42.5633C129.965 29.0918 112.051 21.6699 93 21.6699C73.9485 21.6699 56.0348 29.0882 42.5633 42.5633C29.0918 56.0348 21.6699 73.9485 21.6699 93C21.6699 103.889 24.0969 114.403 28.6873 123.93C26.152 126.252 23.7538 128.723 21.5074 131.33C15.2412 119.683 11.9148 106.598 11.9148 93C11.9148 71.3409 20.348 50.9821 35.6614 35.665C50.9748 20.3517 71.3373 11.9184 92.9964 11.9184C114.655 11.9184 135.014 20.3517 150.331 35.665C165.645 50.9784 174.078 71.3409 174.078 93C174.078 114.659 165.645 135.018 150.331 150.335C135.018 165.648 114.655 174.082 92.9964 174.082C91.1797 174.082 89.3739 174.017 87.5789 173.901V164.128H87.5825ZM157.995 157.995C140.634 175.356 117.552 184.917 93 184.917C91.187 184.917 89.3811 184.859 87.5825 184.754V174.984C89.3775 175.1 91.1833 175.165 93 175.165C114.948 175.165 135.581 166.62 151.101 151.101C166.62 135.581 175.165 114.948 175.165 93C175.165 71.052 166.62 50.4186 151.101 34.8994C135.581 19.3801 114.948 10.835 93 10.835C71.052 10.835 50.4186 19.3801 34.8994 34.8994C19.3801 50.4186 10.835 71.052 10.835 93C10.835 106.923 14.2805 120.319 20.7562 132.212C18.4808 134.928 16.368 137.784 14.4322 140.768C5.7353 126.52 1.0835 110.119 1.0835 93C1.0835 68.448 10.6435 45.3659 28.0047 28.0047C45.3659 10.6435 68.448 1.0835 93 1.0835C117.552 1.0835 140.634 10.6435 157.995 28.0047C175.356 45.3659 184.917 68.448 184.917 93C184.917 117.552 175.356 140.634 157.995 157.995Z" fill="#58BDF6"/>
</g>
<defs>
<clipPath id="clip0_639_817">
<rect width="186" height="186" fill="white"/>
</clipPath>
</defs>
</svg>
