<svg width="401" height="64" viewBox="0 0 401 64" fill="none" xmlns="http://www.w3.org/2000/svg">
<path d="M15.2547 0H0V15.222V30.444V45.6661H15.2547V30.444V15.222H30.5094V0H15.2547Z" fill="#010D14"/>
<path d="M45.7654 15.2197V30.4417V45.6638H30.5107V60.8872H45.7654H61.0215V45.6638V30.4417V15.2197H45.7654Z" fill="#010D14"/>
<path d="M45.7631 30.4417C45.7631 30.4417 30.5086 30.2205 30.5086 15.2197C30.5086 30.2219 15.2539 30.4417 15.2539 30.4417C15.2539 30.4417 30.5086 30.663 30.5086 45.6638C30.5086 30.663 45.7631 30.4417 45.7631 30.4417Z" fill="#010D14"/>
<path d="M91.192 61.8002C85.304 61.8002 80.248 60.0082 77.432 57.6402L76.984 46.6962H79.224C80.696 54.6962 84.728 59.4962 91.192 59.4962C96.824 59.4962 100.216 56.2962 100.216 51.6242C100.216 46.5682 97.4 44.5842 89.336 41.3842C82.36 38.6322 77.432 35.5602 77.432 28.0722C77.432 20.9042 82.872 15.5922 91.512 15.5922C96.696 15.5922 101.368 17.0002 104.568 19.3042V28.8402H102.456C101.432 21.7362 97.656 17.8962 91.512 17.8962C86.712 17.8962 83.832 20.9042 83.832 25.1282C83.832 29.8642 86.136 31.7202 93.176 34.4722C101.816 37.9282 106.68 41.1922 106.68 48.7442C106.68 57.1922 99.64 61.8002 91.192 61.8002ZM120.453 19.4962V27.6242H129.221V30.2482H120.453V51.4322C120.453 55.7842 122.053 57.5762 125.381 57.5762C127.301 57.5762 128.645 57.0002 130.309 55.7842L131.013 56.7442C129.157 59.4962 126.149 61.8002 121.925 61.8002C117.061 61.8002 113.349 59.1762 113.349 52.2002V30.2482H109.189V29.0962C113.157 27.1122 116.485 23.5922 118.917 19.4962H120.453ZM144.952 57.4482C147.192 57.4482 148.856 56.4242 151.096 54.6322V42.6002L144.376 45.3522C141.368 46.5042 139.64 48.1682 139.64 51.6242C139.64 55.0802 141.368 57.4482 144.952 57.4482ZM158.264 37.0962V54.0562C158.264 56.6162 158.776 57.9602 160.568 57.9602C161.592 57.9602 162.488 57.6402 163.32 57.2562L163.704 58.4082C162.04 60.6482 159.736 61.8002 157.048 61.8002C153.72 61.8002 151.736 59.6242 151.224 56.1042C149.048 58.7282 145.592 61.7362 141.112 61.7362C135.992 61.7362 132.728 58.5362 132.728 53.6082C132.728 48.1682 136.696 45.9282 141.688 44.0722L151.096 40.6162V35.7522C151.096 31.7202 149.624 28.7762 145.784 28.7762C142.392 28.7762 140.984 31.1442 140.984 34.3442C140.984 35.4962 141.176 36.5842 141.496 37.9282L137.272 38.5042C135.608 37.9922 134.584 36.7122 134.584 34.7922C134.584 29.7362 139.832 26.9842 146.552 26.9842C154.232 26.9842 158.264 30.0562 158.264 37.0962ZM167.407 17.3202L163.375 15.1442V14.1842L173.487 11.0482H174.575V32.8082C176.879 29.4802 180.335 26.9842 185.327 26.9842C193.263 26.9842 197.999 32.8722 197.999 42.4082C197.999 54.5682 190.511 61.8002 181.231 61.8002C175.727 61.8002 170.735 60.1362 167.407 57.2562V17.3202ZM181.231 59.7522C187.119 59.7522 190.767 53.3522 190.767 45.2242C190.767 37.7362 188.015 31.4002 181.295 31.4002C178.735 31.4002 176.175 32.6162 174.575 34.3442V52.0082C174.575 57.3842 176.943 59.7522 181.231 59.7522ZM212.108 11.0482V56.2962C212.108 58.6642 213.132 59.1122 216.332 59.3042V61.1602H200.716V59.3042C203.916 59.1122 204.94 58.6642 204.94 56.2962V17.3202L200.908 15.1442V14.1842L211.02 11.0482H212.108ZM233.889 26.9842C242.081 26.9842 246.369 32.5522 246.369 39.9762V41.3202H225.312C224.929 51.1122 229.857 56.6802 236.321 56.6802C240.801 56.6802 243.617 54.6962 245.921 51.2402L246.753 51.6882C245.217 57.6402 240.673 61.8002 233.697 61.8002C224.481 61.8002 218.849 54.6962 218.849 45.2882C218.849 34.6002 225.377 26.9842 233.889 26.9842ZM233.312 29.1602C228.705 29.1602 226.017 33.5122 225.505 39.2722H239.713C239.713 33.3842 237.921 29.1602 233.312 29.1602ZM263.621 17.9602V26.6642H271.109V30.1202H263.621V51.3042C263.621 54.3762 264.837 55.7202 267.269 55.7202C268.933 55.7202 270.341 55.1442 271.877 54.1202L272.837 55.5282C270.405 59.4962 266.821 61.8002 261.701 61.8002C255.812 61.8002 251.717 58.8562 251.717 51.3042V30.1202H248.069V28.0082C253.189 26.0882 257.797 22.3762 261.125 17.9602H263.621ZM289.581 38.3122V55.2082C289.581 57.9602 291.053 58.2162 294.701 58.6642V61.1602H274.221V58.6642C276.781 58.4722 277.805 58.2162 277.805 56.1682V33.7042L274.285 31.5282V29.7362L287.661 26.0242H289.837L289.581 35.8802C292.205 28.3922 294.445 26.0242 298.477 26.0242C299.949 26.0242 301.037 26.4722 301.677 27.1122V36.0082H300.141C296.109 36.0082 292.525 36.1362 289.581 38.3122ZM338.927 34.2162V53.8002C338.927 55.9762 339.055 56.9362 341.103 57.0002L342.639 57.0642V59.5602L329.135 61.8002H326.895L327.087 55.5922C324.783 58.5362 321.391 61.8002 315.695 61.8002C309.999 61.8002 306.031 58.4082 306.031 51.0482V35.3682C306.031 33.5122 305.583 32.1682 303.535 31.6562L302.575 31.3362V29.0322L316.079 26.0882H318.191L317.807 34.2162V49.8962C317.807 53.1602 319.087 55.0162 322.159 55.0162C324.079 55.0162 325.359 54.5042 327.087 53.7362V35.3682C327.087 33.5122 326.639 32.1682 324.655 31.6562L323.695 31.3362V29.0322L337.135 26.0882H339.247L338.927 34.2162ZM358.028 61.8002C352.716 61.8002 348.62 60.5202 345.868 58.5362L345.484 49.8962H348.428C349.708 55.1442 353.036 59.1122 358.028 59.1122C361.036 59.1122 363.468 57.6402 363.468 54.7602C363.468 51.4962 360.972 50.4082 356.62 49.0002C349.388 46.7602 345.484 43.7522 345.484 37.2242C345.484 30.0562 350.988 26.0242 358.668 26.0242C363.02 26.0242 366.924 27.1762 369.676 28.9682V36.6482H366.924C366.156 32.4242 363.34 28.7122 358.86 28.7122C356.108 28.7122 354.252 30.2482 354.252 32.6802C354.252 35.3682 356.172 36.4562 360.396 37.9282C368.076 40.4882 372.236 43.1122 372.236 50.0882C372.236 57.5762 366.668 61.8002 358.028 61.8002ZM389.808 17.9602V26.6642H397.296V30.1202H389.808V51.3042C389.808 54.3762 391.024 55.7202 393.456 55.7202C395.12 55.7202 396.528 55.1442 398.064 54.1202L399.024 55.5282C396.592 59.4962 393.008 61.8002 387.888 61.8002C382 61.8002 377.904 58.8562 377.904 51.3042V30.1202H374.256V28.0082C379.376 26.0882 383.984 22.3762 387.312 17.9602H389.808Z" fill="#010D14"/>
</svg>
